<svg width="337" height="302" viewBox="0 0 337 302" fill="none" xmlns="http://www.w3.org/2000/svg">
<path d="M270.102 284.798C347.874 247.034 280.465 145.619 311.687 104.295C346.114 58.7445 299.547 15.3072 222.323 29.5978C146.676 43.5889 98.7473 77.3106 70.9134 103.596C6.17791 164.751 68.306 240.496 122.147 239.414C170.74 238.45 212.225 312.897 270.102 284.798Z" fill="#E9F5FE"/>
<path d="M248.562 292.467C224.897 292.467 203.689 278.41 182.996 264.702C162.818 251.326 143.72 238.699 123.26 239.115C92.3701 239.73 59.4211 216.456 46.567 184.981C39.3594 167.346 32.8161 132.526 69.8007 97.5736C111.352 58.312 164.047 32.559 226.425 21.0135C271.696 12.6454 310.657 22.9765 325.654 47.3487C335.236 62.9202 333.027 81.3865 319.426 99.3869C306.771 116.123 310.109 142.941 313.646 171.322C318.961 213.911 324.973 262.173 276.213 285.846L275.848 285.098L276.213 285.846C266.598 290.488 257.414 292.467 248.562 292.467ZM124.24 237.435C144.866 237.435 163.832 250.012 183.91 263.321C211.943 281.903 240.939 301.118 275.499 284.332C323.179 261.175 317.499 215.591 312.002 171.522C308.415 142.791 305.044 115.657 318.097 98.3887C331.25 80.9706 333.442 63.1698 324.242 48.2304C309.594 24.4405 271.314 14.4089 226.724 22.6605C164.662 34.1395 112.249 59.7593 70.9466 98.788C34.6761 133.059 41.07 167.113 48.1115 184.365C60.7165 215.242 92.9845 238.1 123.227 237.468C123.559 237.435 123.907 237.435 124.24 237.435Z" fill="#D5E9F6"/>
<path d="M236.638 265.151C287.988 275.848 295.412 192.068 257.896 150.56C223.402 112.396 163.367 96.6918 147.689 95.9931C106.735 94.1465 81.4923 106.507 74.0522 129.698C65.8481 155.251 74.2514 196.892 115.936 209.053C149.483 218.835 168.581 209.902 180.854 217.155C206.828 232.527 215.115 260.676 236.638 265.151Z" fill="url(#paint0_linear_20_434)"/>
<path d="M288.237 120.898L282.026 136.486L249.525 137.567C249.525 137.567 239.578 130.597 238.88 131.678C238.166 132.759 242.002 136.22 242.002 136.22C242.002 136.22 231.39 135.737 230.842 137.334C230.278 138.948 240.142 139.114 240.142 139.114C240.142 139.114 228.251 140.212 228.417 141.56C228.584 142.907 240.259 141.693 240.259 141.693C240.259 141.693 230.211 143.806 230.626 144.904C231.041 146.002 240.026 144.039 240.026 144.039C240.026 144.039 233.915 147.316 234.894 148.115C235.891 148.913 243.032 146.135 243.032 146.135C243.032 146.135 281.611 149.811 287.44 147.965C293.269 146.135 300.194 128.367 300.194 128.367L288.237 120.898Z" fill="#DD8D8C"/>
<path d="M50.7127 51.9026L2.70953 91.6256L98.0103 207.193L146.014 167.47L50.7127 51.9026Z" fill="#E8F2F9"/>
<path d="M51.197 56.4863L7.09912 92.9777L97.5238 202.632L141.622 166.141L51.197 56.4863Z" fill="#DAECF9"/>
<path d="M95.0273 189.855L17.554 95.2611C15.2954 92.5328 15.6939 88.4902 18.4175 86.2443L41.8505 66.8297C44.8897 64.301 49.4069 64.7336 51.9312 67.7946L129.371 162.355C132.66 166.331 132.095 172.221 128.126 175.514L109.16 191.202C104.875 194.746 98.548 194.147 95.0273 189.855Z" fill="white"/>
<path d="M37.8481 85.2793C41.1198 82.5676 45.9691 83.0334 48.6595 86.3108C51.3665 89.5881 50.9015 94.4459 47.6299 97.141C44.3582 99.8527 39.5089 99.3869 36.8185 96.1095C34.1115 92.8322 34.5765 87.991 37.8481 85.2793Z" fill="#DAECF9"/>
<path d="M94.1803 153.605C97.4519 150.893 102.301 151.359 104.992 154.636C107.699 157.913 107.234 162.771 103.962 165.466C100.69 168.178 95.841 167.712 93.1506 164.435C90.4602 161.157 90.9086 156.316 94.1803 153.605Z" fill="#6B8EC6"/>
<path d="M85.8542 143.681C97.5718 133.985 100.763 118.475 92.982 109.04C85.2009 99.6037 69.3941 99.8151 57.6765 109.512C45.9588 119.208 42.7676 134.718 50.5486 144.153C58.3297 153.589 74.1365 153.378 85.8542 143.681Z" fill="#DAECF9"/>
<path d="M234.23 232.86H160.211C156.458 232.86 153.435 229.815 153.435 226.055V184.082C153.435 180.322 156.474 177.295 160.211 177.295H234.23C237.983 177.295 241.006 180.339 241.006 184.082V226.055C241.006 229.815 237.967 232.86 234.23 232.86Z" fill="#ABD0EF"/>
<path d="M233.715 177.295C226.043 192.949 214.401 216.856 206.595 232.86H160.195C156.458 232.86 153.419 229.815 153.419 226.055V211.316C159.065 199.737 165.16 187.26 170.026 177.295H233.715Z" fill="url(#paint1_linear_20_434)"/>
<path d="M166.688 196.626H166.456V208.038H166.688V196.626Z" fill="#010101"/>
<path d="M172.002 208.055H166.173C164.346 208.055 162.852 206.558 162.852 204.728V199.97C162.852 198.14 164.346 196.643 166.173 196.643H172.002C173.829 196.643 175.324 198.14 175.324 199.97V204.728C175.324 206.558 173.829 208.055 172.002 208.055Z" fill="#FFECC9"/>
<path d="M171.737 208.055H171.504V199.338H175.324V199.587H171.737V208.055Z" fill="#010101"/>
<path d="M166.572 199.338H162.835V199.571H166.572V199.338Z" fill="#010101"/>
<path d="M166.572 202.049H162.835V202.282H166.572V202.049Z" fill="#010101"/>
<path d="M166.572 204.645H162.835V204.878H166.572V204.645Z" fill="#010101"/>
<path d="M175.307 202.049H171.62V202.282H175.307V202.049Z" fill="#010101"/>
<path d="M175.307 204.645H171.62V204.878H175.307V204.645Z" fill="#010101"/>
<path d="M233.466 198.256C233.383 198.256 233.3 198.223 233.217 198.173C233.051 198.04 233.034 197.791 233.167 197.641C233.167 197.641 233.4 197.325 233.4 196.792C233.4 196.293 233.167 195.977 233.167 195.977C233.034 195.811 233.068 195.578 233.234 195.445C233.4 195.312 233.649 195.345 233.765 195.511C233.798 195.561 234.164 196.044 234.164 196.809C234.164 197.624 233.798 198.09 233.748 198.14C233.682 198.206 233.566 198.256 233.466 198.256Z" fill="white"/>
<path d="M234.745 198.755C234.679 198.755 234.612 198.739 234.546 198.705C234.363 198.589 234.313 198.356 234.429 198.173C234.429 198.173 234.828 197.524 234.828 196.792C234.828 196.26 234.529 195.545 234.413 195.328C234.313 195.145 234.396 194.912 234.579 194.813C234.762 194.713 234.994 194.796 235.094 194.979C235.11 195.012 235.592 195.977 235.592 196.792C235.592 197.757 235.11 198.539 235.077 198.572C234.994 198.689 234.878 198.755 234.745 198.755Z" fill="white"/>
<path d="M236.007 199.404C235.941 199.404 235.874 199.388 235.824 199.354C235.642 199.255 235.575 199.022 235.675 198.839C235.675 198.839 236.256 197.807 236.256 196.792C236.256 195.894 235.658 194.646 235.658 194.646C235.559 194.463 235.642 194.23 235.841 194.131C236.024 194.031 236.256 194.114 236.356 194.314C236.389 194.363 237.02 195.728 237.02 196.792C237.02 198.007 236.372 199.155 236.339 199.205C236.273 199.338 236.14 199.404 236.007 199.404Z" fill="white"/>
<path d="M237.302 200.036C237.236 200.036 237.17 200.02 237.103 199.986C236.921 199.887 236.854 199.654 236.97 199.471C236.97 199.471 237.718 198.156 237.668 196.809C237.618 195.528 236.887 193.898 236.871 193.881C236.788 193.681 236.871 193.465 237.07 193.382C237.253 193.299 237.485 193.382 237.568 193.582C237.601 193.648 238.365 195.378 238.432 196.809C238.498 198.373 237.668 199.82 237.635 199.87C237.552 199.97 237.435 200.036 237.302 200.036Z" fill="white"/>
<path d="M200.517 185.213H162.835V190.604H200.517V185.213Z" fill="white"/>
<path d="M208.871 222.612H162.835V226.837H208.871V222.612Z" fill="white"/>
<path d="M37.4991 87.0874L0.0055542 136.883L119.472 227.148L156.966 177.353L37.4991 87.0874Z" fill="#D0E3EF"/>
<path d="M39.0319 91.4335L4.58862 137.178L117.942 222.825L152.386 177.08L39.0319 91.4335Z" fill="#9DC2E2"/>
<path d="M112.565 210.983L15.2954 136.952C12.4721 134.822 11.9075 130.796 14.0332 127.968L32.3345 103.662C34.7094 100.502 39.1934 99.8694 42.3488 102.248L139.568 176.23C143.687 179.341 144.501 185.197 141.395 189.323L126.581 208.987C123.276 213.429 116.982 214.31 112.565 210.983Z" fill="white"/>
<path d="M32.7165 122.545C35.274 119.151 40.0901 118.469 43.478 121.031C46.8659 123.593 47.5468 128.417 44.9893 131.811C42.4318 135.205 37.6156 135.887 34.2277 133.325C30.8398 130.763 30.1589 125.938 32.7165 122.545Z" fill="#CDE5F4"/>
<path d="M103.348 175.897C105.905 172.503 110.721 171.821 114.109 174.383C117.497 176.945 118.178 181.77 115.62 185.164C113.063 188.557 108.247 189.239 104.859 186.677C101.471 184.115 100.79 179.291 103.348 175.897Z" fill="#6B8EC6"/>
<path d="M92.9493 168.181C102.101 156.026 101.614 140.197 91.8594 132.827C82.1053 125.457 66.7787 129.337 57.6265 141.492C48.4742 153.647 48.9622 169.475 58.7163 176.845C68.4704 184.215 83.797 180.336 92.9493 168.181Z" fill="#CDE5F4"/>
<path d="M279.684 249.047C279.684 249.047 282.458 283.201 279.684 289.124C276.928 295.046 272.028 297.991 272.028 297.991C272.028 297.991 280.299 295.429 283.106 293.898C284.467 293.166 288.868 289.473 288.868 289.473C288.868 289.473 291.808 264.801 293.601 249.496C293.651 248.997 279.684 249.047 279.684 249.047Z" fill="#FEB3A2"/>
<path d="M289.333 288.608C289.333 288.608 277.393 296.693 274.619 296.859L269.371 298.207C269.371 298.207 272.693 300.702 276.479 300.37C280.266 300.037 282.84 296.793 282.84 296.793L285.364 296.144L284.467 299.854L289.748 298.673L289.333 288.608Z" fill="#0B2C3D"/>
<path d="M310.823 249.28C310.823 249.28 323.578 281.072 322.681 287.543C321.801 294.015 317.998 298.29 317.998 298.29C317.998 298.29 325.139 293.382 327.364 291.103C328.444 289.989 331.549 285.164 331.549 285.164C331.549 285.164 327.049 260.725 324.242 245.586C324.159 245.087 310.823 249.28 310.823 249.28Z" fill="#FEB3A2"/>
<path d="M331.748 284.199C331.748 284.199 322.747 295.462 320.14 296.444L315.523 299.288C315.523 299.288 319.442 300.686 322.947 299.238C326.467 297.808 327.962 293.931 327.962 293.931L330.171 292.551L330.42 296.36L335.12 293.649L331.748 284.199Z" fill="#0B2C3D"/>
<path d="M96.0569 283.351H174.311C179.741 283.351 184.159 278.942 184.159 273.486V24.8731C184.159 19.4331 179.758 15.0078 174.311 15.0078H96.0569C90.6263 15.0078 86.2087 19.4164 86.2087 24.8731V273.486C86.2253 278.942 90.6263 283.351 96.0569 283.351Z" fill="white"/>
<path d="M93.7153 283.351H176.652C180.788 283.351 184.159 279.99 184.159 275.831V245.836H86.2253V275.831C86.2253 279.99 89.58 283.351 93.7153 283.351Z" fill="#E8F2F9"/>
<path d="M165.559 180.023H107.782C102.401 180.023 98.0332 175.648 98.0332 170.241V84.2146C98.0332 78.8245 102.401 74.4325 107.782 74.4325H165.559C170.939 74.4325 175.324 78.8078 175.324 84.2146V170.257C175.324 175.648 170.956 180.023 165.559 180.023Z" fill="#E8F2F9"/>
<path d="M164.712 87.259H109.808V161.357H164.712V87.259Z" fill="white"/>
<path d="M93.7153 283.351H176.652C180.788 283.351 184.159 279.99 184.159 275.831V269.825H86.2253V275.831C86.2253 279.99 89.58 283.351 93.7153 283.351Z" fill="#DAE9EF"/>
<path d="M185.82 15.0078C183.86 11.6805 180.671 9.51782 177.068 9.51782H89.4638C83.4021 9.51782 78.4863 15.6732 78.4863 23.2594V274.401C78.4863 281.987 83.4021 288.142 89.4638 288.142H177.068C183.146 288.142 188.045 281.987 188.045 274.401V23.2594C188.045 20.165 187.231 17.3036 185.82 15.0078ZM184.176 273.319C184.176 278.859 180.588 283.351 176.154 283.351H94.2301C89.8125 283.351 86.2254 278.859 86.2254 273.319V25.0395C86.2254 19.4996 89.8125 15.0078 94.2301 15.0078H176.154C180.588 15.0078 184.176 19.4996 184.176 25.0395V273.319Z" fill="#18587A"/>
<path d="M251.767 91.2019H162.436V169.609H251.767V91.2019Z" fill="#18587A"/>
<path d="M255.106 89.139H159.098V103.862H255.106V89.139Z" fill="#B0DAF9"/>
<path d="M213.023 89.322H197.96V171.472H213.023V89.322Z" fill="#FF5200"/>
<path d="M195.186 91.2518C189.938 91.2518 184.209 90.3035 180.904 86.7933C178.164 83.8819 177.516 79.7894 178.994 74.6322C180.356 69.8742 182.697 67.2457 185.936 66.8131C194.738 65.6818 205.948 83.2165 208.107 86.7434L209.651 89.2887L206.745 89.9542C205.765 90.1871 200.75 91.2518 195.186 91.2518ZM186.899 71.0554C186.766 71.0554 186.65 71.072 186.517 71.0886C184.773 71.3215 183.711 73.8003 183.129 75.8466C182.083 79.4899 182.382 82.1018 184.026 83.8653C187.63 87.6916 197.03 87.2092 202.759 86.3441C198.009 79.1905 190.968 71.0554 186.899 71.0554Z" fill="#FF5200"/>
<path d="M215.779 91.2518C210.216 91.2518 205.2 90.1871 204.221 89.9542L201.314 89.2888L202.859 86.7434C205.001 83.1999 216.278 65.6819 225.03 66.8132C228.268 67.2457 230.61 69.8909 231.971 74.6322C233.45 79.7894 232.802 83.882 230.062 86.7933C226.757 90.3036 221.027 91.2518 215.779 91.2518ZM208.223 86.3275C213.969 87.1926 223.352 87.675 226.956 83.8487C228.617 82.0853 228.899 79.4734 227.853 75.83C227.272 73.7838 226.209 71.3049 224.465 71.072C220.446 70.523 213.122 78.9743 208.223 86.3275Z" fill="#FF5200"/>
<path d="M150.28 119.001L150.595 147.449L173.115 147.948C173.115 147.948 183.511 146.884 189.041 148.131C194.588 149.379 226.009 159.56 227.687 155.518C229.364 151.475 200.916 142.309 200.916 142.309C200.916 142.309 239.162 147.416 238.93 141.793C238.697 136.17 205.582 133.891 205.582 133.891C205.582 133.891 246.503 133.408 245.689 127.702C244.875 122.012 207.525 124.325 207.525 124.325C207.525 124.325 240.358 113.594 238.747 109.335C237.136 105.093 205.616 115.84 205.616 115.84L189.49 115.358C189.49 115.358 202.261 103.862 203.108 100.818C203.955 97.7732 203.025 93.5975 203.025 93.5975L187.597 104.877C187.597 104.877 177.798 108.72 174.693 111.764C171.272 115.125 165.442 118.302 165.442 118.302L150.28 119.001Z" fill="#FEB3A2"/>
<path d="M152.107 117.254L150.679 147.566L125.867 147.549L127.711 115.291L152.107 117.254Z" fill="#1E23C8"/>
<path d="M153.502 118.868C153.385 118.918 153.253 118.985 153.136 119.068C152.771 119.251 152.389 119.484 151.99 119.766L150.894 143.09C150.878 143.124 150.678 147.449 150.678 147.449C150.612 147.449 150.297 119.001 150.297 119.001L151.243 118.968C151.243 118.951 153.502 118.868 153.502 118.868Z" fill="#FEB3A2"/>
<path d="M152.107 117.254L152.057 118.452C152.04 118.519 150.894 143.09 150.894 143.09C150.878 143.124 150.679 147.566 150.679 147.566L125.867 147.549L127.711 115.291L152.107 117.254Z" fill="#FF5200"/>
<path d="M171.969 31.4943H99.6773C96.9371 31.4943 94.7117 33.9564 94.7117 37.0175C94.7117 40.0619 96.9371 42.5407 99.6773 42.5407H171.969C174.709 42.5407 176.935 40.0786 176.935 37.0175C176.935 33.9731 174.709 31.4943 171.969 31.4943Z" fill="#FF5200"/>
<path d="M53.2432 25.9378C53.2432 31.5941 57.8268 36.1857 63.4899 36.1857C69.1364 36.1857 73.72 31.5941 73.72 25.9212C73.72 20.2648 69.1364 15.6732 63.4733 15.6732C57.8268 15.6899 53.2432 20.2815 53.2432 25.9378Z" fill="#DAECF9"/>
<path d="M296.823 15.091C294.947 15.091 293.17 14.359 291.841 13.0281C290.512 11.6972 289.782 9.93371 289.782 8.03718C289.782 4.14429 292.937 0.983398 296.823 0.983398C300.709 0.983398 303.865 4.14429 303.865 8.03718C303.865 9.91708 303.134 11.6972 301.805 13.0281C300.477 14.359 298.7 15.091 296.823 15.091ZM296.823 2.66366C293.85 2.66366 291.442 5.07592 291.442 8.05381C291.442 9.48453 292.007 10.8487 293.02 11.8635C294.033 12.8783 295.378 13.444 296.823 13.444C298.251 13.444 299.613 12.8783 300.626 11.8635C301.639 10.8487 302.204 9.50117 302.204 8.05381C302.204 5.07592 299.779 2.66366 296.823 2.66366Z" fill="#9FC6F1"/>
<path d="M235.509 61.7057C235.509 67.3621 240.092 71.9537 245.756 71.9537C251.402 71.9537 255.986 67.3621 255.986 61.6891C255.986 56.0328 251.402 51.4412 245.739 51.4412C240.076 51.4412 235.509 56.0494 235.509 61.7057Z" fill="white"/>
<path d="M286.278 59.9257C282.225 59.9257 278.904 56.6151 278.904 52.5558C278.904 50.5927 279.668 48.7295 281.063 47.332C282.458 45.9346 284.301 45.1693 286.278 45.1693C288.237 45.1693 290.097 45.9346 291.492 47.332C292.887 48.7295 293.651 50.5761 293.651 52.5558C293.651 54.5189 292.887 56.3822 291.492 57.7796C290.097 59.1604 288.237 59.9257 286.278 59.9257ZM286.261 46.3505C284.6 46.3505 283.056 46.9993 281.877 48.1638C280.714 49.3284 280.066 50.8922 280.066 52.5558C280.066 55.9662 282.84 58.7611 286.261 58.7611C289.682 58.7611 292.455 55.9829 292.455 52.5558C292.455 50.8922 291.808 49.345 290.645 48.1638C289.483 46.9827 287.922 46.3505 286.261 46.3505Z" fill="white"/>
<path d="M247.964 253.988C247.964 259.644 252.548 264.236 258.211 264.236C263.858 264.236 268.441 259.644 268.441 253.971C268.441 248.315 263.858 243.723 258.194 243.723C252.548 243.723 247.964 248.315 247.964 253.988Z" fill="white"/>
<path d="M260.121 198.689C260.121 200.635 261.699 202.199 263.625 202.199C265.552 202.199 267.129 200.619 267.129 198.689C267.129 196.742 265.552 195.179 263.625 195.179C261.682 195.179 260.121 196.742 260.121 198.689Z" fill="white"/>
<path d="M292.854 98.7547L291.409 110.234L303.516 104.161C303.516 104.161 302.221 102.215 301.739 99.4701C301.257 96.7251 300.61 94.0466 300.61 94.0466L292.854 98.7547Z" fill="#FEB3A2"/>
<path d="M289.699 80.4049C289.699 80.4049 284.484 94.9783 289.217 99.6531C292.638 103.014 305.276 93.3479 304.546 89.5549C303.815 85.7618 299.862 90.2868 299.862 90.2868C299.862 90.2868 300.593 86.5603 298.251 85.1962C295.91 83.8153 292.92 82.8504 291.874 81.8855C290.828 80.8874 289.699 80.4049 289.699 80.4049Z" fill="#FEB3A2"/>
<path d="M288.935 77.0611C288.935 77.0611 288.752 81.8523 292.173 83.3662C295.578 84.8801 297.82 84.9633 298.683 86.6768C299.53 88.3904 299.68 90.5531 299.68 90.5531C299.68 90.5531 302.486 87.3922 303.499 88.041C304.928 88.9726 302.304 94.1798 300.892 95.3111C299.464 96.4423 303.283 105.16 303.283 105.16C303.283 105.16 307.734 104.977 310.009 108.953C312.285 112.945 309.91 132.31 309.91 132.31C309.91 132.31 308.864 138.382 312.949 137.534C317.018 136.685 318.213 131.062 322.017 129.731C325.803 128.401 330.088 127.07 332.197 123.859C335.867 118.269 328.161 119.201 327.646 112.846C327.364 109.402 331.715 109.785 332.479 106.491C334.256 98.8546 315.805 90.5364 313.431 87.2092C311.056 83.8819 307.452 73.9168 301.208 73.4344C294.947 73.0018 288.935 77.0611 288.935 77.0611Z" fill="#0B2C3D"/>
<path d="M314.543 137.634C313.879 137.634 313.331 137.434 312.899 137.002C311.488 135.637 311.919 132.476 311.986 132.027L305.276 104.594C304.629 103.13 301.44 95.5772 302.935 94.3794C304.031 93.4977 305.99 89.871 305.907 88.1242C305.891 87.7582 305.791 87.5253 305.609 87.3922C304.595 86.7267 290.612 76.0629 290.612 76.0629L290.861 75.8799C290.911 75.8466 296.259 71.9371 302.619 72.4195C307.535 72.7855 310.425 78.2755 312.534 82.2848C313.231 83.5991 313.813 84.7304 314.394 85.5455C315.108 86.5604 317.632 88.1907 320.555 90.0706C327.314 94.446 336.581 100.452 335.302 105.942C334.92 107.605 333.675 108.404 332.579 109.103C331.35 109.901 330.27 110.583 330.42 112.297C330.652 115.125 332.313 116.456 333.791 117.637C335.585 119.068 337.129 120.315 334.987 123.593C332.944 126.72 328.859 128.134 325.255 129.382L324.574 129.615C322.814 130.231 321.651 131.761 320.406 133.391C319.044 135.188 317.632 137.035 315.374 137.517C315.058 137.6 314.792 137.634 314.543 137.634Z" fill="#0B2C3D"/>
<path d="M323.81 89.6048C322.249 88.7397 320.904 88.2573 319.708 87.8414C317.715 87.1427 315.988 86.5271 314.195 84.3478C313.431 83.4328 312.799 82.3348 312.119 81.2035C310.441 78.3587 308.531 75.1313 304.097 73.2847C300.095 71.6044 292.389 75.5971 292.306 75.647L292.09 75.2311C292.406 75.0647 300.078 71.1053 304.28 72.8521C308.864 74.7653 310.807 78.0593 312.517 80.9706C313.181 82.1019 313.813 83.1666 314.543 84.065C316.254 86.1445 317.832 86.7101 319.841 87.4088C321.053 87.8248 322.415 88.3072 324.009 89.2056L323.81 89.6048Z" fill="black"/>
<path d="M287.822 110.234C287.822 110.234 278.754 122.661 277.907 127.635C277.06 132.61 280.133 143.59 280.133 143.59C280.133 143.59 281.063 145.869 279.801 152.157C278.539 158.446 270.235 255.136 270.235 255.136L331.45 253.406C331.45 253.406 321.85 204.395 315.506 174.932C312.949 163.021 308.83 155.052 309.329 153.654C311.056 148.78 314.311 131.062 314.792 126.504C315.257 121.946 316.503 107.971 309.877 104.877C305.426 102.797 302.735 101.683 302.735 101.683L287.822 110.234Z" fill="#FF5200"/>
<path d="M294.631 129.548L288.42 145.137L256.019 146.551C256.019 146.551 254.076 144.937 251.767 143.523C248.994 141.809 245.756 141.011 245.357 141.61C244.643 142.691 249.011 145.469 249.011 145.469C249.011 145.469 237.784 144.405 237.219 146.002C236.655 147.615 246.52 147.782 246.52 147.782C246.52 147.782 235.31 148.065 235.476 149.412C235.642 150.76 246.619 150.194 246.619 150.194C246.619 150.194 237.236 151.392 237.651 152.49C238.066 153.588 246.387 152.723 246.387 152.723C246.387 152.723 239.993 154.902 240.989 155.701C241.986 156.499 247.184 154.12 247.184 154.12C247.184 154.12 253.013 154.154 256.716 154.47C267.843 155.418 289.433 158.03 293.801 156.666C299.63 154.836 306.572 137.068 306.572 137.068L294.631 129.548Z" fill="#FEB3A2"/>
<path d="M174.925 221.414L174.145 232.51L175.307 233.392L191.051 230.664L174.925 221.414Z" fill="#9195F0"/>
<path d="M153.767 157.547C153.402 157.048 153.518 156.366 154 156C154.498 155.634 155.179 155.751 155.544 156.233C155.91 156.732 155.794 157.414 155.312 157.78C154.814 158.146 154.133 158.046 153.767 157.547Z" fill="#1E23C8"/>
<path d="M137.525 155.301C137.924 154.836 138.605 154.769 139.07 155.168C139.535 155.568 139.601 156.25 139.203 156.715C138.804 157.181 138.123 157.248 137.658 156.849C137.193 156.466 137.127 155.767 137.525 155.301Z" fill="#E69104"/>
<path d="M191.051 230.664V153.222L176.088 155.751L174.145 223.277L191.051 230.664Z" fill="#1E23C8"/>
<path d="M161.158 157.481C161.025 157.481 160.925 157.381 160.925 157.248C160.925 157.215 160.809 153.122 160.344 147.682C160.327 147.549 160.427 147.432 160.56 147.432C160.676 147.432 160.809 147.516 160.809 147.649C161.257 153.089 161.39 157.198 161.39 157.231C161.39 157.364 161.291 157.481 161.158 157.481Z" fill="#040076"/>
<path d="M137.658 157.481C137.492 157.464 137.409 157.348 137.426 157.215C137.426 157.181 137.974 153.022 138.987 147.516C140.05 141.643 141.794 133.342 144.102 127.053C144.683 125.473 145.248 124.175 145.796 123.077C147.639 119.384 149.582 117.704 151.559 118.07C151.791 118.119 151.99 118.169 152.14 118.236C152.19 118.253 152.24 118.269 152.273 118.286C152.555 118.386 152.821 118.535 153.053 118.702C153.103 118.735 153.17 118.785 153.236 118.835L153.302 118.901C153.402 118.985 153.419 119.134 153.336 119.234C153.253 119.334 153.103 119.35 153.004 119.267L152.92 119.201C152.871 119.168 152.837 119.134 152.788 119.101C152.555 118.935 152.323 118.802 152.057 118.718C151.824 118.619 151.658 118.569 151.459 118.519C149.715 118.186 147.955 119.8 146.211 123.277C145.663 124.358 145.115 125.639 144.534 127.219C142.242 133.475 140.498 141.76 139.452 147.616C138.455 153.105 137.907 157.248 137.907 157.298C137.874 157.381 137.775 157.481 137.658 157.481Z" fill="#040076"/>
<path d="M126.947 153.804L179.575 151.658C179.575 151.658 179.525 152.939 179.426 155.185C178.795 170.374 176.304 229.649 175.291 233.375C175.49 233.176 121.483 227.536 121.483 227.536L126.947 153.804Z" fill="#594CF0"/>
<path d="M164.031 158.795C164.737 158.795 165.31 158.222 165.31 157.514C165.31 156.807 164.737 156.233 164.031 156.233C163.325 156.233 162.752 156.807 162.752 157.514C162.752 158.222 163.325 158.795 164.031 158.795Z" fill="#1E23C8"/>
<path d="M134.553 158.795C135.259 158.795 135.832 158.222 135.832 157.514C135.832 156.807 135.259 156.233 134.553 156.233C133.847 156.233 133.274 156.807 133.274 157.514C133.274 158.222 133.847 158.795 134.553 158.795Z" fill="#1E23C8"/>
<path d="M164.247 157.481C164.13 157.481 164.014 157.381 163.998 157.265C163.998 157.231 163.765 153.189 163.117 147.765C163.101 147.632 163.2 147.516 163.317 147.499C163.45 147.482 163.566 147.582 163.582 147.699C164.23 153.139 164.463 157.198 164.463 157.231C164.479 157.364 164.38 157.464 164.247 157.481Z" fill="#040076"/>
<path d="M134.553 157.481C134.387 157.464 134.304 157.348 134.32 157.215C134.32 157.165 134.951 153.022 136.097 147.499C137.376 141.443 138.771 136.12 140.282 131.695C140.897 129.898 141.528 128.234 142.176 126.754C145.082 120.066 148.204 116.938 151.459 117.404C151.708 117.437 151.957 117.487 152.19 117.57C152.505 117.67 152.804 117.803 153.103 117.936C153.369 118.086 153.718 118.286 154.066 118.552C154.1 118.569 154.166 118.619 154.232 118.668C154.332 118.752 154.365 118.901 154.282 119.001C154.199 119.101 154.066 119.134 153.95 119.051C153.884 119.001 153.834 118.968 153.784 118.935C153.452 118.668 153.136 118.485 152.887 118.352C152.622 118.219 152.339 118.119 152.057 118.02C151.858 117.953 151.625 117.903 151.409 117.87C148.387 117.404 145.447 120.482 142.624 126.953C141.993 128.417 141.362 130.064 140.764 131.861C139.269 136.27 137.874 141.56 136.595 147.616C135.45 153.122 134.835 157.265 134.818 157.314C134.769 157.398 134.669 157.481 134.553 157.481Z" fill="#040076"/>
<path d="M126.614 211.599L121.45 219.95L121.998 221.114L135.433 225.473L126.614 211.599Z" fill="#FDE180"/>
<path d="M135.433 225.473L158.816 162.139L154.515 160.725L125.253 212.713L135.433 225.473Z" fill="#E69104"/>
<path d="M146.909 158.446C146.875 158.446 146.842 158.446 146.809 158.429C146.693 158.379 146.643 158.229 146.693 158.113C146.709 158.063 148.852 153.421 151.21 147.383C151.26 147.266 151.393 147.2 151.509 147.249C151.625 147.299 151.692 147.432 151.642 147.549C149.267 153.588 147.141 158.246 147.108 158.296C147.075 158.396 146.992 158.446 146.909 158.446Z" fill="#040076"/>
<path d="M128.541 148.747C128.491 148.747 128.458 148.73 128.425 148.714C128.308 148.647 128.275 148.497 128.342 148.381C128.342 148.381 128.557 148.015 128.989 147.399C131.181 144.089 135.549 137.634 140.315 131.611C141.528 130.081 142.807 128.517 144.135 126.97C146.46 124.291 148.436 122.295 150.164 120.864C150.878 120.265 151.393 119.883 151.874 119.567C152.306 119.284 152.671 119.051 153.053 118.868C153.136 118.801 153.253 118.735 153.402 118.685C153.585 118.602 153.718 118.535 153.834 118.502C154.664 118.153 155.378 118.036 156.009 118.153C156.325 118.203 156.624 118.319 156.923 118.519C157.022 118.585 157.056 118.735 156.989 118.851C156.923 118.951 156.773 118.984 156.657 118.918C156.408 118.752 156.176 118.652 155.926 118.618C155.378 118.519 154.764 118.618 154 118.935C153.884 118.968 153.784 119.018 153.684 119.051C153.502 119.134 153.385 119.201 153.302 119.267C152.92 119.467 152.572 119.683 152.157 119.966C151.692 120.265 151.193 120.648 150.496 121.23C148.785 122.644 146.842 124.624 144.534 127.269C143.205 128.8 141.926 130.364 140.731 131.894C135.981 137.917 131.613 144.355 129.438 147.649C129.023 148.264 128.807 148.63 128.807 148.63C128.69 148.714 128.624 148.747 128.541 148.747Z" fill="#040076"/>
<path d="M116.883 138.931L158.916 158.961C158.916 158.961 158.351 159.943 157.355 161.657C150.629 173.269 124.323 218.602 121.998 221.098C122.23 221.031 82.3226 194.347 82.3226 194.347L116.883 138.931Z" fill="#FFCC00"/>
<path d="M143.371 156.599C143.67 156.05 144.351 155.834 144.899 156.117C145.447 156.416 145.663 157.098 145.381 157.647C145.082 158.196 144.401 158.412 143.853 158.13C143.288 157.83 143.072 157.148 143.371 156.599Z" fill="#E69104"/>
<path d="M125.103 146.817C125.402 146.268 126.083 146.052 126.631 146.334C127.179 146.634 127.395 147.316 127.113 147.865C126.814 148.414 126.133 148.63 125.585 148.347C125.02 148.048 124.804 147.366 125.103 146.817Z" fill="#E69104"/>
<path d="M144.467 157.148C144.434 157.148 144.401 157.148 144.368 157.115C144.251 157.048 144.202 156.915 144.268 156.799C144.285 156.765 146.311 152.789 148.719 147.449C148.769 147.333 148.918 147.283 149.034 147.333C149.151 147.383 149.2 147.532 149.151 147.649C146.743 153.006 144.716 156.982 144.683 157.032C144.65 157.098 144.567 157.148 144.467 157.148Z" fill="#040076"/>
<path d="M126.1 147.466C126.05 147.466 126 147.449 125.967 147.416C125.867 147.349 125.834 147.2 125.917 147.083C126 146.967 134.221 135.271 142.159 126.72C143.62 125.14 144.766 123.975 145.813 123.01C145.829 122.977 145.862 122.944 145.896 122.927C147.473 121.413 148.868 120.249 150.147 119.384C150.446 119.151 150.778 118.951 151.077 118.785C151.409 118.602 151.675 118.452 151.924 118.302C151.974 118.286 152.007 118.252 152.057 118.252C152.356 118.103 152.638 117.986 152.871 117.903C154.116 117.471 155.113 117.52 155.877 118.036C155.96 118.103 156.043 118.153 156.092 118.219C156.225 118.336 156.358 118.469 156.458 118.602C156.541 118.702 156.508 118.851 156.408 118.935C156.308 119.018 156.159 119.001 156.076 118.885C155.993 118.785 155.893 118.668 155.777 118.569C155.727 118.519 155.661 118.469 155.611 118.419C154.98 118.003 154.133 117.97 153.053 118.352C152.721 118.469 152.489 118.552 152.24 118.685C152.206 118.702 152.173 118.718 152.123 118.718C151.874 118.851 151.608 119.018 151.343 119.167C151.027 119.367 150.695 119.567 150.396 119.783C149.134 120.648 147.706 121.829 146.145 123.327C145.098 124.308 143.953 125.456 142.541 126.97C134.586 135.554 126.349 147.266 126.266 147.383C126.249 147.432 126.183 147.466 126.1 147.466Z" fill="#040076"/>
<path d="M165.509 49.0789H109.808V60.0921H165.509V49.0789Z" fill="#E8F2F9"/>
<path d="M157.272 52.8387L162.237 52.822L159.929 56.3489L157.272 52.8387Z" fill="white"/>
<path d="M159.945 56.7648C159.813 56.7648 159.68 56.6983 159.613 56.5985L156.939 53.0882C156.84 52.9551 156.823 52.7888 156.906 52.6557C156.973 52.5059 157.122 52.4228 157.272 52.4228L162.237 52.4061C162.387 52.4061 162.536 52.4893 162.603 52.6224C162.669 52.7555 162.669 52.9219 162.586 53.0549L160.278 56.5818C160.211 56.6983 160.078 56.7648 159.945 56.7648Z" fill="#FF5200"/>
<path d="M305.377 156.423L303.755 156.783L325.191 253.748L326.812 253.388L305.377 156.423Z" fill="white"/>
<path d="M300.114 156.479L298.467 156.69L310.913 254.066L312.56 253.854L300.114 156.479Z" fill="white"/>
<path d="M295.463 156.559L293.804 156.628L297.847 254.378L299.507 254.309L295.463 156.559Z" fill="white"/>
<path d="M284.184 157.079L277.689 254.851L279.346 254.962L285.841 157.19L284.184 157.079Z" fill="white"/>
<path d="M288.875 157.018L287.539 254.63L289.2 254.653L290.535 157.041L288.875 157.018Z" fill="white"/>
<path d="M163.732 277.345H220.961V285.663H163.732V277.345Z" fill="url(#paint2_linear_20_434)"/>
<path d="M166.356 277.811H164.662V285.38H166.356V277.811Z" fill="#E69104"/>
<path d="M169.445 277.811H167.751V285.38H169.445V277.811Z" fill="#E69104"/>
<path d="M173.098 277.811H171.404V285.38H173.098V277.811Z" fill="#E69104"/>
<path d="M176.204 277.811H174.51V285.38H176.204V277.811Z" fill="#E69104"/>
<path d="M179.692 277.811H177.998V285.38H179.692V277.811Z" fill="#E69104"/>
<path d="M182.781 277.811H181.087V285.38H182.781V277.811Z" fill="#E69104"/>
<path d="M186.185 277.811H184.491V285.38H186.185V277.811Z" fill="#E69104"/>
<path d="M189.274 277.811H187.58V285.38H189.274V277.811Z" fill="#E69104"/>
<path d="M192.778 277.811H191.084V285.38H192.778V277.811Z" fill="#E69104"/>
<path d="M195.867 277.811H194.173V285.38H195.867V277.811Z" fill="#E69104"/>
<path d="M199.637 277.811H197.943V285.38H199.637V277.811Z" fill="#E69104"/>
<path d="M202.726 277.811H201.032V285.38H202.726V277.811Z" fill="#E69104"/>
<path d="M206.23 277.811H204.536V285.38H206.23V277.811Z" fill="#E69104"/>
<path d="M209.319 277.811H207.625V285.38H209.319V277.811Z" fill="#E69104"/>
<path d="M212.508 277.811H210.814V285.38H212.508V277.811Z" fill="#E69104"/>
<path d="M215.995 277.811H214.301V285.38H215.995V277.811Z" fill="#E69104"/>
<path d="M219.084 277.811H217.39V285.38H219.084V277.811Z" fill="#E69104"/>
<path d="M151.791 285.73H209.02V294.048H151.791V285.73Z" fill="url(#paint3_linear_20_434)"/>
<path d="M154.432 286.196H152.738V293.765H154.432V286.196Z" fill="#E69104"/>
<path d="M157.521 286.196H155.827V293.765H157.521V286.196Z" fill="#E69104"/>
<path d="M161.174 286.196H159.48V293.765H161.174V286.196Z" fill="#E69104"/>
<path d="M164.28 286.196H162.586V293.765H164.28V286.196Z" fill="#E69104"/>
<path d="M167.767 286.196H166.074V293.765H167.767V286.196Z" fill="#E69104"/>
<path d="M170.856 286.196H169.163V293.765H170.856V286.196Z" fill="#E69104"/>
<path d="M174.261 286.196H172.567V293.765H174.261V286.196Z" fill="#E69104"/>
<path d="M177.35 286.196H175.656V293.765H177.35V286.196Z" fill="#E69104"/>
<path d="M180.837 286.196H179.144V293.765H180.837V286.196Z" fill="#E69104"/>
<path d="M183.943 286.196H182.249V293.765H183.943V286.196Z" fill="#E69104"/>
<path d="M187.713 286.196H186.019V293.765H187.713V286.196Z" fill="#E69104"/>
<path d="M190.802 286.196H189.108V293.765H190.802V286.196Z" fill="#E69104"/>
<path d="M194.306 286.196H192.612V293.765H194.306V286.196Z" fill="#E69104"/>
<path d="M197.395 286.196H195.701V293.765H197.395V286.196Z" fill="#E69104"/>
<path d="M200.584 286.196H198.89V293.765H200.584V286.196Z" fill="#E69104"/>
<path d="M204.071 286.196H202.377V293.765H204.071V286.196Z" fill="#E69104"/>
<path d="M207.16 286.196H205.466V293.765H207.16V286.196Z" fill="#E69104"/>
<path d="M139.983 269.343H197.212V277.661H139.983V269.343Z" fill="url(#paint4_linear_20_434)"/>
<path d="M142.607 269.825H140.913V277.395H142.607V269.825Z" fill="#E69104"/>
<path d="M145.696 269.825H144.002V277.395H145.696V269.825Z" fill="#E69104"/>
<path d="M149.367 269.825H147.673V277.395H149.367V269.825Z" fill="#E69104"/>
<path d="M152.455 269.825H150.762V277.395H152.455V269.825Z" fill="#E69104"/>
<path d="M155.943 269.825H154.249V277.395H155.943V269.825Z" fill="#E69104"/>
<path d="M159.049 269.825H157.355V277.395H159.049V269.825Z" fill="#E69104"/>
<path d="M162.436 269.825H160.743V277.395H162.436V269.825Z" fill="#E69104"/>
<path d="M165.542 269.825H163.848V277.395H165.542V269.825Z" fill="#E69104"/>
<path d="M169.03 269.825H167.336V277.395H169.03V269.825Z" fill="#E69104"/>
<path d="M172.119 269.825H170.425V277.395H172.119V269.825Z" fill="#E69104"/>
<path d="M175.888 269.825H174.195V277.395H175.888V269.825Z" fill="#E69104"/>
<path d="M178.994 269.825H177.3V277.395H178.994V269.825Z" fill="#E69104"/>
<path d="M182.482 269.825H180.788V277.395H182.482V269.825Z" fill="#E69104"/>
<path d="M185.571 269.825H183.877V277.395H185.571V269.825Z" fill="#E69104"/>
<path d="M188.759 269.825H187.065V277.395H188.759V269.825Z" fill="#E69104"/>
<path d="M192.247 269.825H190.553V277.395H192.247V269.825Z" fill="#E69104"/>
<path d="M195.352 269.825H193.658V277.395H195.352V269.825Z" fill="#E69104"/>
<path d="M117.464 268.994C121.699 255.685 135.931 248.348 149.267 252.607C162.603 256.866 169.976 271.09 165.758 284.399C161.523 297.708 147.291 305.044 133.955 300.786C120.619 296.543 113.229 282.303 117.464 268.994Z" fill="url(#paint5_linear_20_434)"/>
<path d="M135.184 296.926C123.941 293.349 117.713 281.304 121.267 270.092C124.837 258.879 136.878 252.673 148.104 256.267C159.331 259.844 165.575 271.888 162.021 283.101C158.451 294.297 146.41 300.503 135.184 296.926ZM147.59 257.881C137.243 254.587 126.149 260.293 122.878 270.607C119.59 280.922 125.352 292.018 135.699 295.312C146.045 298.606 157.139 292.9 160.41 282.585C163.682 272.254 157.936 261.175 147.59 257.881Z" fill="#E69104"/>
<path d="M137.775 288.824C135.333 288.042 133.39 286.944 133.008 286.711C132.211 286.245 131.929 285.214 132.41 284.399C132.875 283.6 133.905 283.317 134.719 283.783C136.396 284.765 141.345 287.061 144.119 285.929C144.7 285.696 145.53 285.181 145.962 283.567C146.493 281.62 145.464 280.739 141.877 278.909C138.837 277.362 134.254 275.016 136.297 269.543C136.861 268.012 137.957 266.897 139.435 266.315C143.737 264.635 150.28 267.879 151.011 268.262C151.841 268.677 152.173 269.709 151.741 270.541C151.326 271.373 150.297 271.689 149.466 271.273C147.208 270.125 142.823 268.628 140.648 269.476C140.05 269.709 139.684 270.092 139.452 270.724C138.605 273.02 139.585 273.935 143.404 275.898C146.427 277.445 150.562 279.558 149.217 284.465C148.453 287.293 146.709 288.525 145.381 289.074C143.006 290.038 140.149 289.573 137.775 288.824Z" fill="#E69104"/>
<path d="M136.928 293.066C136.031 292.767 135.549 291.802 135.832 290.92L137.193 286.811C137.492 285.929 138.389 285.397 139.319 285.73C140.199 286.029 140.681 286.977 140.399 287.859L139.037 291.968C138.754 292.867 137.808 293.349 136.928 293.066Z" fill="#E69104"/>
<path d="M144.75 269.543C143.836 269.243 143.371 268.278 143.654 267.397L145.215 262.722C145.514 261.84 146.543 261.374 147.357 261.657C148.237 261.956 148.719 262.905 148.42 263.803L146.859 268.478C146.576 269.343 145.63 269.825 144.75 269.543Z" fill="#E69104"/>
<path d="M148.291 252.834L147.392 255.725L149.01 256.23L149.909 253.339L148.291 252.834Z" fill="#E69104"/>
<path d="M155.078 255.673L153.324 258.159L154.707 259.138L156.461 256.652L155.078 255.673Z" fill="#E69104"/>
<path d="M160.619 260.509L158.197 262.321L159.211 263.68L161.633 261.868L160.619 260.509Z" fill="#E69104"/>
<path d="M164.417 266.793L161.556 267.769L162.102 269.375L164.963 268.399L164.417 266.793Z" fill="#E69104"/>
<path d="M166.081 273.942L163.059 273.981L163.081 275.678L166.103 275.638L166.081 273.942Z" fill="#E69104"/>
<path d="M162.603 282.535L163.101 280.922L166.007 281.82L165.492 283.434L162.603 282.535Z" fill="#E69104"/>
<path d="M160.709 286.651L159.731 288.037L162.199 289.785L163.177 288.4L160.709 286.651Z" fill="#E69104"/>
<path d="M156.705 292.43L155.483 293.605L157.577 295.789L158.799 294.614L156.705 292.43Z" fill="#E69104"/>
<path d="M150.665 296.498L149.128 297.212L150.399 299.959L151.936 299.246L150.665 296.498Z" fill="#E69104"/>
<path d="M144.102 298.245L142.408 298.266L142.445 301.293L144.139 301.272L144.102 298.245Z" fill="#E69104"/>
<path d="M135.556 297.552L134.657 300.443L136.274 300.947L137.173 298.057L135.556 297.552Z" fill="#E69104"/>
<path d="M128.985 294.437L127.235 296.906L128.617 297.888L130.366 295.419L128.985 294.437Z" fill="#E69104"/>
<path d="M124.185 289.415L121.759 291.222L122.77 292.584L125.195 290.777L124.185 289.415Z" fill="#E69104"/>
<path d="M120.792 282.764L117.929 283.734L118.471 285.342L121.334 284.372L120.792 282.764Z" fill="#E69104"/>
<path d="M119.856 275.789L116.834 275.824L116.853 277.521L119.876 277.486L119.856 275.789Z" fill="#E69104"/>
<path d="M122.429 260.787L121.45 262.172L123.917 263.922L124.896 262.537L122.429 260.787Z" fill="#E69104"/>
<path d="M128.16 255.658L126.802 256.672L128.607 259.099L129.966 258.086L128.16 255.658Z" fill="#E69104"/>
<path d="M135.019 252.621L133.415 253.165L134.384 256.033L135.988 255.489L135.019 252.621Z" fill="#E69104"/>
<path d="M142.726 251.737L141.032 251.758L141.07 254.802L142.763 254.781L142.726 251.737Z" fill="#E69104"/>
<path d="M118.078 268.305L117.569 269.923L120.451 270.833L120.96 269.215L118.078 268.305Z" fill="#E69104"/>
<path d="M183.877 22.3611H86.5077C87.2218 18.2186 90.4104 14.7916 95.0107 14.9579L175.556 14.9413C180.688 14.9413 183.329 18.6512 183.877 22.3611Z" fill="url(#paint6_linear_20_434)"/>
<path d="M175.058 20.7474H168.515C168.017 20.7474 167.601 20.3315 167.601 19.8324V17.4867C167.601 16.9876 168.017 16.5717 168.515 16.5717H175.058C175.556 16.5717 175.972 16.9876 175.972 17.4867V19.8324C175.972 20.3315 175.573 20.7474 175.058 20.7474ZM168.515 17.0375C168.266 17.0375 168.066 17.2371 168.066 17.4867V19.8324C168.066 20.0819 168.266 20.2815 168.515 20.2815H175.058C175.307 20.2815 175.507 20.0819 175.507 19.8324V17.4867C175.507 17.2371 175.307 17.0375 175.058 17.0375H168.515Z" fill="white"/>
<path d="M173.514 19.9654H168.847C168.548 19.9654 168.316 19.7159 168.316 19.4164V17.8859C168.316 17.5865 168.548 17.3369 168.847 17.3369H171.853L173.514 19.9654Z" fill="white"/>
<path d="M176.453 18.3351V18.8674C176.453 18.9672 176.387 19.0338 176.287 19.0338H175.739V18.1687H176.287C176.387 18.1687 176.453 18.2352 176.453 18.3351Z" fill="white"/>
<path d="M105.606 17.9857L104.975 18.6678C104.394 18.1021 103.597 17.7694 102.716 17.7694C101.82 17.7694 101.023 18.1188 100.425 18.701L99.777 18.0356C100.541 17.2869 101.571 16.8378 102.716 16.8378C103.829 16.8378 104.842 17.2703 105.606 17.9857Z" fill="white"/>
<path d="M104.643 19.0005L103.995 19.6826C103.663 19.3665 103.198 19.1669 102.7 19.1669C102.185 19.1669 101.72 19.3665 101.388 19.6993L100.724 19.0172C101.238 18.5181 101.919 18.2186 102.7 18.2186C103.464 18.2186 104.145 18.5181 104.643 19.0005Z" fill="white"/>
<path d="M103.663 20.0319L102.7 21.0467L101.72 20.0486C101.969 19.799 102.318 19.6493 102.7 19.6493C103.082 19.6493 103.414 19.7824 103.663 20.0319Z" fill="white"/>
<path d="M114.524 16.5051H113.246V21.0468H114.524V16.5051Z" fill="white"/>
<path d="M112.614 17.5199H111.336V21.0468H112.614V17.5199Z" fill="white"/>
<path d="M110.854 18.3684H109.575V21.0468H110.854V18.3684Z" fill="white"/>
<path d="M109.11 19.6993H107.832V21.0469H109.11V19.6993Z" fill="white"/>
<defs>
<linearGradient id="paint0_linear_20_434" x1="259.807" y1="196.037" x2="435.533" y2="237.451" gradientUnits="userSpaceOnUse">
<stop stop-color="#E4F1F9"/>
<stop offset="1" stop-color="#DAECF9"/>
</linearGradient>
<linearGradient id="paint1_linear_20_434" x1="214.168" y1="256.671" x2="185.588" y2="181.503" gradientUnits="userSpaceOnUse">
<stop stop-color="#E4F1F9"/>
<stop offset="1" stop-color="#ADCFF1"/>
</linearGradient>
<linearGradient id="paint2_linear_20_434" x1="206.879" y1="281.503" x2="161.487" y2="281.493" gradientUnits="userSpaceOnUse">
<stop stop-color="#FFD875"/>
<stop offset="1" stop-color="#E9B500"/>
</linearGradient>
<linearGradient id="paint3_linear_20_434" x1="194.953" y1="289.885" x2="149.56" y2="289.875" gradientUnits="userSpaceOnUse">
<stop stop-color="#FFD875"/>
<stop offset="1" stop-color="#E9B500"/>
</linearGradient>
<linearGradient id="paint4_linear_20_434" x1="183.134" y1="273.51" x2="137.742" y2="273.5" gradientUnits="userSpaceOnUse">
<stop stop-color="#FFD875"/>
<stop offset="1" stop-color="#E9B500"/>
</linearGradient>
<linearGradient id="paint5_linear_20_434" x1="154.816" y1="268.327" x2="85.3763" y2="312.201" gradientUnits="userSpaceOnUse">
<stop stop-color="#FFD875"/>
<stop offset="1" stop-color="#E9B500"/>
</linearGradient>
<linearGradient id="paint6_linear_20_434" x1="52.3822" y1="18.6582" x2="149.754" y2="18.6582" gradientUnits="userSpaceOnUse">
<stop stop-color="#E4F1F9"/>
<stop offset="1" stop-color="#ADCFF1"/>
</linearGradient>
</defs>
</svg>
