<svg width="335" height="282" viewBox="0 0 335 282" fill="none" xmlns="http://www.w3.org/2000/svg">
<path d="M275.045 32.9125L195.245 133.149L236.973 166.331L316.773 66.0944L275.045 32.9125Z" fill="#E8F2F9"/>
<path d="M198.982 131.921L274.706 36.8295L313.037 67.3156L237.327 162.407L198.982 131.921Z" fill="url(#paint0_linear_20_269)"/>
<path d="M209.213 127.599L274.648 46.0002C276.539 43.6269 279.983 43.246 282.343 45.1212L302.718 61.3238C305.371 63.4334 305.811 67.2863 303.7 69.9232L238.295 151.493C235.554 154.95 230.526 155.522 227.067 152.768L210.576 139.656C206.883 136.711 206.267 131.306 209.213 127.599Z" fill="white"/>
<path d="M286.579 61.2213C289.423 63.4774 289.892 67.6233 287.635 70.4653C285.377 73.3074 281.229 73.7762 278.385 71.5201C275.542 69.264 275.073 65.1182 277.33 62.2761C279.602 59.4341 283.736 58.9506 286.579 61.2213Z" fill="#DAECF9"/>
<path d="M239.395 120.48C242.238 122.736 242.707 126.882 240.45 129.724C238.193 132.566 234.044 133.034 231.201 130.778C228.357 128.522 227.888 124.376 230.145 121.534C232.417 118.692 236.551 118.223 239.395 120.48Z" fill="#6B8EC6"/>
<path d="M276.471 111.613C282.983 103.433 280.005 90.2361 269.818 82.136C259.632 74.0359 246.095 74.1006 239.583 82.2803C233.071 90.4601 236.05 103.657 246.236 111.758C256.422 119.858 269.959 119.793 276.471 111.613Z" fill="#DAECF9"/>
<path d="M300.205 64.0682L203.076 147.652L237.872 188.039L335 104.456L300.205 64.0682Z" fill="#D0E3EF"/>
<path d="M299.122 67.8413L206.97 147.142L238.935 184.244L331.087 104.943L299.122 67.8413Z" fill="#9DC2E2"/>
<path d="M217.832 144.798L297.353 76.8526C299.64 74.8749 303.114 75.1386 305.078 77.4239L322.067 97.1425C324.281 99.7062 323.987 103.574 321.422 105.786L241.931 173.702C238.588 176.573 233.546 176.207 230.658 172.867L216.909 156.913C213.831 153.324 214.241 147.904 217.832 144.798Z" fill="white"/>
<path d="M306.251 94.0368C308.625 96.7909 308.318 100.937 305.562 103.31C302.806 105.683 298.658 105.376 296.283 102.622C293.909 99.8674 294.216 95.7215 296.972 93.3482C299.713 90.975 303.876 91.2826 306.251 94.0368Z" fill="#CDE5F4"/>
<path d="M248.82 143.45C251.194 146.204 250.886 150.35 248.131 152.724C245.375 155.097 241.227 154.789 238.852 152.035C236.477 149.281 236.785 145.135 239.541 142.762C242.297 140.389 246.445 140.696 248.82 143.45Z" fill="#6B8EC6"/>
<path d="M285.876 111.441C294.377 121.3 294.832 134.822 286.902 141.648C278.971 148.475 265.662 145.999 257.16 136.14C248.658 126.281 248.204 112.759 256.134 105.932C264.064 99.1056 277.388 101.581 285.876 111.441Z" fill="#CDE5F4"/>
<path d="M21.1762 244.613C74.0628 323.029 158.655 242.98 205.469 263.334C253.556 284.233 288.753 238.295 269.558 164.332C250.876 92.3325 204.608 47.4995 169.891 33.215C112.487 9.59442 34.2655 52.9923 43.4495 104.258C51.7233 150.526 -13.7561 192.819 21.1762 244.613Z" fill="#E9F5FE"/>
<path d="M229.955 126.427C257.204 96.3221 204.244 58.6283 161.882 67.4475C122.935 75.5634 88.9424 109.492 82.3169 119.688C65.0495 146.307 63.3931 167.989 75.9405 182.023C89.7633 197.479 120.824 208.158 145.259 185.07C164.931 166.494 166.455 150.248 176.1 144.901C196.534 133.576 218.536 139.041 229.955 126.427Z" fill="url(#paint1_linear_20_269)"/>
<path d="M77.0821 281.79C53.094 281.79 29.9645 273.185 10.8797 244.813C-10.4834 213.095 3.8632 184.707 17.7475 157.259C27.8678 137.246 37.4432 118.337 33.8772 98.4552C30.2451 78.0956 39.6719 57.1425 59.7803 40.9868C89.4641 17.1158 133.28 9.97756 166.348 23.6111C204.534 39.3547 251.503 87.8056 270.373 160.605C281.567 203.781 275.425 241.747 254.376 259.7C240.657 271.388 222.282 273.135 202.669 264.596C184.706 256.782 160.933 263.524 135.773 270.679C116.771 276.07 96.6456 281.79 77.0821 281.79ZM129.928 18.3852C105.528 18.3852 80.1363 26.7268 60.8204 42.2562C41.2073 58.0328 31.9786 78.4088 35.5116 98.1584C39.1602 118.584 29.0234 138.614 19.2169 158.001C5.54716 185.02 -8.58483 212.963 12.2334 243.89C46.2261 294.385 93.5419 280.95 135.294 269.08C160.751 261.843 184.805 255.018 203.312 263.079C222.315 271.355 240.062 269.706 253.286 258.447C273.857 240.923 279.784 203.583 268.755 161.018C250.034 88.7782 203.511 40.723 165.704 25.1442C154.692 20.5942 142.443 18.3852 129.928 18.3852Z" fill="#D5E9F6"/>
<path d="M129.678 175.577C124.753 164.707 129.619 151.889 140.54 146.952C151.46 142.015 164.301 146.82 169.226 157.69C174.151 168.56 169.284 181.379 158.364 186.316C147.429 191.252 134.588 186.447 129.678 175.577Z" fill="url(#paint2_linear_20_269)"/>
<path d="M156.927 183.166C147.722 187.326 136.86 183.254 132.712 174.098C128.564 164.941 132.683 154.101 141.873 149.94C151.079 145.78 161.94 149.852 166.089 159.008C170.237 168.164 166.133 179.005 156.927 183.166ZM142.489 151.244C134.016 155.082 130.22 165.059 134.046 173.497C137.857 181.935 147.868 185.671 156.341 181.847C164.813 178.009 168.61 168.033 164.784 159.594C160.958 151.156 150.961 147.42 142.489 151.244Z" fill="#E69104"/>
<path d="M153.937 176.529C151.944 177.438 150.068 177.848 149.701 177.921C148.924 178.082 148.162 177.584 148.001 176.793C147.839 176.017 148.338 175.255 149.129 175.079C150.756 174.742 155.227 173.35 156.327 171.065C156.561 170.582 156.796 169.791 156.151 168.501C155.374 166.963 154.216 166.992 150.874 167.886C148.059 168.633 143.794 169.776 141.962 165.147C141.448 163.857 141.507 162.524 142.123 161.294C143.896 157.763 149.921 156.064 150.61 155.888C151.387 155.683 152.178 156.137 152.384 156.913C152.589 157.69 152.12 158.466 151.357 158.686C149.261 159.243 145.611 160.81 144.717 162.598C144.468 163.096 144.453 163.55 144.659 164.077C145.436 166.026 146.579 166.04 150.141 165.103C152.941 164.355 156.781 163.33 158.745 167.212C159.874 169.454 159.478 171.226 158.936 172.325C157.968 174.303 155.887 175.65 153.937 176.529Z" fill="#E69104"/>
<path d="M155.843 179.708C155.095 180.031 154.245 179.708 153.923 178.976L152.442 175.592C152.12 174.859 152.398 174.01 153.19 173.687C153.923 173.365 154.773 173.702 155.095 174.435L156.576 177.819C156.884 178.536 156.561 179.371 155.843 179.708Z" fill="#E69104"/>
<path d="M147.356 160.283C146.608 160.605 145.758 160.283 145.435 159.55L143.75 155.697C143.427 154.965 143.823 154.086 144.497 153.793C145.23 153.471 146.08 153.808 146.403 154.54L148.088 158.393C148.396 159.111 148.074 159.961 147.356 160.283Z" fill="#E69104"/>
<path d="M141.382 147.028L140.064 147.634L141.148 149.99L142.466 149.384L141.382 147.028Z" fill="#E69104"/>
<path d="M147.433 145.423L145.991 145.594L146.297 148.169L147.738 147.999L147.433 145.423Z" fill="#E69104"/>
<path d="M152.283 145.468L151.778 148.011L153.201 148.294L153.707 145.751L152.283 145.468Z" fill="#E69104"/>
<path d="M158.291 147.272L157.026 149.535L158.292 150.243L159.558 147.979L158.291 147.272Z" fill="#E69104"/>
<path d="M163.45 150.856L161.545 152.616L162.53 153.681L164.435 151.921L163.45 150.856Z" fill="#E69104"/>
<path d="M166.147 158.305L165.546 157.001L167.906 155.917L168.507 157.221L166.147 158.305Z" fill="#E69104"/>
<path d="M169.878 161.733L167.301 162.036L167.472 163.477L170.048 163.173L169.878 161.733Z" fill="#E69104"/>
<path d="M170.516 169.615L167.936 169.439L168.039 167.989L170.633 168.179L170.516 169.615Z" fill="#E69104"/>
<path d="M166.527 174.013L165.957 175.347L168.343 176.366L168.913 175.032L166.527 174.013Z" fill="#E69104"/>
<path d="M163.37 178.877L162.304 179.861L164.064 181.766L165.13 180.782L163.37 178.877Z" fill="#E69104"/>
<path d="M158.854 182.721L157.535 183.327L158.619 185.683L159.938 185.077L158.854 182.721Z" fill="#E69104"/>
<path d="M153.012 184.942L151.57 185.11L151.87 187.685L153.311 187.518L153.012 184.942Z" fill="#E69104"/>
<path d="M145.629 184.706L145.118 187.248L146.541 187.534L147.052 184.992L145.629 184.706Z" fill="#E69104"/>
<path d="M139.667 182.388L138.397 184.649L139.663 185.359L140.933 183.098L139.667 182.388Z" fill="#E69104"/>
<path d="M135.092 178.513L133.185 180.271L134.168 181.337L136.076 179.58L135.092 178.513Z" fill="#E69104"/>
<path d="M130.713 167.24L128.136 167.543L128.306 168.983L130.882 168.68L130.713 167.24Z" fill="#E69104"/>
<path d="M128.855 160.976L128.57 162.398L131.114 162.907L131.399 161.484L128.855 160.976Z" fill="#E69104"/>
<path d="M131.471 155.138L130.761 156.403L133.024 157.672L133.734 156.407L131.471 155.138Z" fill="#E69104"/>
<path d="M135.88 150.152L134.814 151.136L136.574 153.041L137.64 152.058L135.88 150.152Z" fill="#E69104"/>
<path d="M132.057 173.708L129.697 174.784L130.299 176.104L132.66 175.028L132.057 173.708Z" fill="#E69104"/>
<path d="M249.553 234.015H179.384C175.587 234.015 172.524 230.939 172.524 227.159V11.5587C172.524 7.76443 175.602 4.70264 179.384 4.70264H249.553C253.349 4.70264 256.413 7.76443 256.413 11.5587V227.159C256.413 230.939 253.349 234.015 249.553 234.015Z" fill="#E8F2F9"/>
<path d="M239.028 151.39H188.032C183.283 151.39 179.428 147.538 179.428 142.776V67.0225C179.428 62.276 183.283 58.4084 188.032 58.4084H239.028C243.777 58.4084 247.647 62.2613 247.647 67.0225V142.791C247.633 147.538 243.777 151.39 239.028 151.39Z" fill="white"/>
<path opacity="0.2" d="M239.028 151.757H188.032C183.078 151.757 179.061 147.728 179.061 142.791V67.0225C179.061 62.0709 183.092 58.0569 188.032 58.0569H239.028C243.983 58.0569 247.999 62.0856 247.999 67.0225V142.791C247.999 147.743 243.983 151.757 239.028 151.757Z" fill="#FF5200"/>
<path d="M228.973 132.111H195.933C192.474 132.111 189.674 129.313 189.674 125.856V83.9577C189.674 80.5004 192.474 77.7023 195.933 77.7023H228.973C232.432 77.7023 235.232 80.5004 235.232 83.9577V125.856C235.232 129.313 232.432 132.111 228.973 132.111Z" fill="#B0DAF9"/>
<path d="M207.571 163.315C207.366 163.315 207.205 163.154 207.205 162.949C207.205 162.803 206.838 148.915 201.62 148.226C200.814 148.124 200.125 148.343 199.48 148.9C196.094 151.801 195.83 162.407 195.83 162.524C195.83 162.729 195.683 162.891 195.449 162.876C195.244 162.876 195.082 162.7 195.097 162.495C195.112 162.041 195.376 151.449 199.011 148.343C199.817 147.655 200.726 147.376 201.723 147.508C207.571 148.285 207.938 162.334 207.952 162.935C207.938 163.14 207.776 163.315 207.571 163.315Z" fill="#040076"/>
<path d="M211.676 157.338L212.467 210.385L181.04 205.785L181.934 157.617L211.676 157.338Z" fill="#2355F1"/>
<path d="M217.407 157.368L214.343 157.426L215.34 204.657L218.931 206.019L217.407 157.368Z" fill="#2355F1"/>
<path d="M214.461 157.5H211.573L212.409 210.004L215.487 204.452L214.461 157.5Z" fill="#1E23C8"/>
<path d="M202.558 162.349C202.353 162.349 202.192 162.187 202.192 161.982C202.192 161.836 201.825 147.948 196.607 147.259C195.815 147.157 195.112 147.376 194.467 147.933C191.081 150.834 190.817 161.44 190.817 161.543C190.817 161.748 190.656 161.88 190.436 161.894C190.231 161.894 190.069 161.719 190.084 161.513C190.099 161.059 190.363 150.468 193.998 147.362C194.804 146.673 195.713 146.395 196.71 146.527C202.558 147.303 202.925 161.352 202.939 161.953C202.925 162.173 202.749 162.349 202.558 162.349Z" fill="#040076"/>
<path d="M261.133 4.70257C259.447 1.84587 256.72 0 253.642 0H178.592C175.514 0 172.787 1.84587 171.102 4.70257C169.9 6.66564 169.196 9.11215 169.196 11.7491V226.368C169.196 232.843 173.403 238.102 178.592 238.102H253.642C258.831 238.102 263.038 232.843 263.038 226.368V11.7491C263.038 9.11215 262.335 6.66564 261.133 4.70257ZM256.413 225.445C256.413 230.177 253.349 234.015 249.553 234.015H179.384C175.587 234.015 172.523 230.177 172.523 225.445V13.2727C172.523 8.52616 175.587 4.70257 179.384 4.70257H249.553C253.349 4.70257 256.413 8.52616 256.413 13.2727V225.445Z" fill="#18587A"/>
<path d="M104.671 200.614C104.465 200.614 104.304 200.438 104.304 200.233C104.319 199.559 104.846 183.591 113.216 182.726C114.887 182.565 116.368 183.034 117.643 184.147C122.26 188.191 122.627 199.266 122.642 199.735C122.642 199.94 122.495 200.101 122.29 200.116C122.128 200.101 121.923 199.954 121.909 199.764C121.909 199.647 121.542 188.557 117.159 184.719C116.045 183.737 114.741 183.327 113.29 183.473C105.565 184.265 105.037 200.101 105.037 200.262C105.037 200.453 104.861 200.614 104.671 200.614Z" fill="#040076"/>
<path d="M256.691 185.729C256.486 185.729 256.325 185.554 256.325 185.349C256.339 184.865 256.676 173.57 262.1 172.94C263.126 172.823 264.049 173.116 264.856 173.819C267.993 176.544 268.242 184.66 268.242 184.997C268.242 185.202 268.08 185.363 267.875 185.378C267.685 185.378 267.509 185.217 267.509 185.026C267.509 184.938 267.26 176.896 264.372 174.376C263.727 173.805 263.009 173.585 262.188 173.673C257.395 174.215 257.057 185.261 257.057 185.363C257.057 185.583 256.896 185.744 256.691 185.729Z" fill="#040076"/>
<path d="M104.671 200.614C104.466 200.614 104.304 200.438 104.304 200.233C104.319 199.559 104.847 183.591 113.216 182.726C114.888 182.565 116.368 183.034 117.643 184.147C122.261 188.191 122.627 199.266 122.642 199.735C122.642 199.94 122.495 200.101 122.29 200.116C122.129 200.101 121.923 199.954 121.909 199.764C121.909 199.647 121.542 188.557 117.16 184.719C116.046 183.737 114.741 183.327 113.29 183.473C105.565 184.265 105.037 200.101 105.037 200.262C105.037 200.453 104.861 200.614 104.671 200.614Z" fill="#040076"/>
<path d="M98.7195 193.86L97.5761 254.202L143.222 248.972L141.917 194.197L98.7195 193.86Z" fill="#594CF0"/>
<path d="M90.4085 193.889L94.8646 193.948L93.4134 247.683L88.2097 249.236L90.4085 193.889Z" fill="#594CF0"/>
<path d="M94.6738 194.036H98.8661L97.6641 253.763L93.1934 247.434L94.6738 194.036Z" fill="#1E23C8"/>
<path d="M88.2684 249.266L93.648 247.449L97.767 253.866L88.2684 249.266Z" fill="#A5A6FF"/>
<path d="M111.971 199.515C111.766 199.515 111.604 199.339 111.604 199.134C111.619 198.46 112.147 182.492 120.517 181.628C122.158 181.466 123.668 181.935 124.943 183.049C129.561 187.092 129.927 198.167 129.942 198.636C129.942 198.841 129.781 199.002 129.575 199.017C129.385 199.017 129.209 198.856 129.209 198.665C129.209 198.548 128.842 187.458 124.46 183.62C123.346 182.638 122.041 182.214 120.59 182.375C112.865 183.166 112.352 199.002 112.337 199.163C112.337 199.354 112.161 199.515 111.971 199.515Z" fill="#040076"/>
<path d="M185.936 165.923C185.731 165.923 185.57 165.762 185.57 165.557C185.57 165.41 185.203 151.522 179.985 150.834C179.193 150.731 178.49 150.951 177.845 151.508C174.459 154.408 174.195 165.015 174.195 165.132C174.195 165.337 174.004 165.528 173.814 165.484C173.609 165.484 173.447 165.308 173.462 165.103C173.477 164.649 173.741 154.057 177.376 150.951C178.182 150.263 179.091 149.984 180.088 150.116C185.936 150.892 186.303 164.942 186.317 165.542C186.303 165.747 186.127 165.908 185.936 165.923Z" fill="#040076"/>
<path d="M190.026 159.946L190.817 212.993L159.39 208.393L160.284 160.224L190.026 159.946Z" fill="#594CF0"/>
<path d="M195.757 159.961L192.694 160.019L193.691 207.25L197.282 208.612L195.757 159.961Z" fill="#594CF0"/>
<path d="M192.811 160.092H189.923L190.759 212.597L193.837 207.045L192.811 160.092Z" fill="#1E23C8"/>
<path d="M197.223 208.656L193.529 207.06L190.7 212.7L197.223 208.656Z" fill="#A5A6FF"/>
<path d="M180.908 164.956C180.703 164.956 180.542 164.795 180.542 164.59C180.542 164.443 180.175 150.555 174.957 149.867C174.166 149.764 173.462 149.984 172.817 150.541C169.431 153.441 169.167 164.048 169.167 164.165C169.167 164.37 168.991 164.531 168.801 164.517C168.595 164.517 168.434 164.341 168.434 164.136C168.449 163.682 168.713 153.09 172.348 149.984C173.154 149.296 174.063 149.017 175.06 149.149C180.908 149.926 181.275 163.975 181.289 164.575C181.275 164.78 181.114 164.942 180.908 164.956Z" fill="#040076"/>
<path d="M256.691 185.73C256.486 185.73 256.325 185.554 256.325 185.349C256.339 184.865 256.676 173.57 262.1 172.94C263.126 172.823 264.05 173.116 264.856 173.819C267.993 176.544 268.242 184.66 268.242 184.997C268.242 185.202 268.081 185.363 267.875 185.378C267.685 185.378 267.509 185.217 267.509 185.026C267.509 184.939 267.26 176.896 264.372 174.376C263.727 173.805 263.009 173.585 262.188 173.673C257.395 174.215 257.058 185.261 257.058 185.363C257.058 185.583 256.896 185.744 256.691 185.73Z" fill="#040076"/>
<path d="M252.91 180.88L252.177 223.277L281.215 219.6L280.379 181.115L252.91 180.88Z" fill="#FFCC00"/>
<path d="M247.618 180.895L250.447 180.939L249.523 218.691L246.211 219.79L247.618 180.895Z" fill="#FFCC00"/>
<path d="M250.344 181.012H253.012L252.25 222.969L249.406 218.53L250.344 181.012Z" fill="#E69104"/>
<path d="M246.269 219.82L249.685 218.545L252.309 223.057L246.269 219.82Z" fill="#FDE180"/>
<path d="M261.338 184.968C261.133 184.968 260.972 184.792 260.972 184.587C260.986 184.103 261.323 172.808 266.747 172.179C267.773 172.061 268.696 172.354 269.503 173.058C272.64 175.782 272.889 183.898 272.889 184.235C272.889 184.44 272.728 184.602 272.522 184.616C272.332 184.616 272.156 184.455 272.156 184.265C272.156 184.177 271.907 176.134 269.019 173.614C268.374 173.058 267.656 172.823 266.835 172.911C262.027 173.453 261.705 184.499 261.705 184.602C261.705 184.807 261.529 184.968 261.338 184.968Z" fill="#040076"/>
<path d="M201.063 177.203C200.858 177.203 200.697 177.028 200.697 176.822C200.711 176.339 201.049 165.044 206.472 164.414C207.498 164.297 208.422 164.59 209.228 165.293C212.365 168.018 212.614 176.134 212.614 176.471C212.614 176.676 212.453 176.837 212.247 176.852C212.057 176.852 211.881 176.691 211.881 176.5C211.881 176.412 211.632 168.37 208.744 165.85C208.099 165.278 207.381 165.059 206.56 165.147C201.752 165.703 201.43 176.735 201.43 176.837C201.43 177.042 201.254 177.203 201.063 177.203Z" fill="#040076"/>
<path d="M197.282 172.354L196.549 214.751L225.587 211.074L224.751 172.589L197.282 172.354Z" fill="#FFCC00"/>
<path d="M191.99 172.369L194.819 172.413L193.895 210.165L190.583 211.264L191.99 172.369Z" fill="#FFCC00"/>
<path d="M194.702 172.471H197.37L196.607 214.443L193.764 210.004L194.702 172.471Z" fill="#E69104"/>
<path d="M190.626 211.279L194.042 210.004L196.666 214.516L190.626 211.279Z" fill="#FDE180"/>
<path d="M205.695 176.427C205.49 176.427 205.329 176.251 205.329 176.046C205.343 175.563 205.68 164.268 211.104 163.638C212.13 163.52 213.054 163.813 213.86 164.517C216.997 167.242 217.246 175.357 217.246 175.694C217.246 175.9 217.085 176.061 216.879 176.075C216.689 176.075 216.513 175.914 216.513 175.724C216.513 175.636 216.264 167.593 213.376 165.073C212.731 164.502 212.013 164.282 211.192 164.37C206.384 164.912 206.062 175.958 206.062 176.061C206.062 176.266 205.9 176.427 205.695 176.427Z" fill="#040076"/>
<path d="M51.2854 92.3227L167.73 23.5861C169.182 22.7364 171.058 23.2491 171.937 24.7434L214.52 96.8055C215.399 98.2998 214.945 100.19 213.493 101.039L97.0484 169.776C95.5973 170.626 93.721 170.113 92.8415 168.619L50.2593 96.5565C49.3798 95.0769 49.8343 93.1724 51.2854 92.3227Z" fill="#FDE180"/>
<path d="M51.6373 100.966L174.781 28.2887L184.177 44.1837L61.0332 116.861L51.6373 100.966Z" fill="#18587A"/>
<path d="M67.644 124.801L188.545 53.4423L196.197 66.4073L75.2956 137.766L67.644 124.801Z" fill="#FFFEEE"/>
<path d="M69.0074 125.973L189.909 54.6143L190.861 56.2257L69.9602 127.57L69.0074 125.973Z" fill="#D9E4DB"/>
<path d="M71.0299 128.962L191.931 57.6028L192.884 59.2143L71.9827 130.559L71.0299 128.962Z" fill="#D9E4DB"/>
<path d="M72.7306 131.98L193.632 60.6206L194.585 62.2321L73.6834 133.591L72.7306 131.98Z" fill="#D9E4DB"/>
<path d="M74.196 134.895L195.097 63.5359L196.05 65.1474L75.1488 136.506L74.196 134.895Z" fill="#D9E4DB"/>
<path d="M201.547 93.568L201.268 117.872L181.978 118.297C181.978 118.297 173.081 117.388 168.331 118.458C163.582 119.513 136.669 128.229 135.233 124.772C133.796 121.329 158.158 113.492 158.158 113.492C158.158 113.492 125.397 117.857 125.603 113.052C125.808 108.247 154.157 106.299 154.157 106.299C154.157 106.299 119.109 105.888 119.813 101.01C120.516 96.1463 152.5 98.1241 152.5 98.1241C152.5 98.1241 124.371 88.9533 125.764 85.3202C127.156 81.687 154.142 90.8724 154.142 90.8724L167.95 90.4476C167.95 90.4476 157 80.6323 156.282 78.0246C155.564 75.4169 156.356 71.8571 156.356 71.8571L169.577 81.4966C169.577 81.4966 177.976 84.7781 180.63 87.3858C183.561 90.2571 188.545 92.9673 188.545 92.9673L201.547 93.568Z" fill="#FEB3A2"/>
<path d="M44.0439 74.7284L42.71 77.7462L42.4022 82.4635C42.4022 82.4635 44.7622 83.8552 47.1808 83.8552C49.5994 83.8552 51.6369 82.4635 51.6369 82.4635L50.2884 78.1418L44.0439 74.7284Z" fill="#FEB3A2"/>
<path d="M44.3814 70.4506C44.3814 70.4506 41.6109 67.6525 40.7168 69.8939C39.8226 72.1353 48.1485 80.3978 51.3733 79.0647C54.5981 77.7169 55.6829 70.8169 55.5949 67.8576C55.507 64.8984 55.507 61.6022 51.9157 60.7818C44.5719 59.0678 44.3814 70.4506 44.3814 70.4506Z" fill="#FEB3A2"/>
<path d="M61.4141 111.514L70.8393 107.397C70.8393 107.397 73.082 104.541 75.6472 101.464C78.2124 98.3877 80.162 96.3368 80.631 96.9228C81.1147 97.5087 77.5528 103.808 77.5528 103.808C77.5528 103.808 88.6051 97.2011 89.5725 97.5087C90.7599 98.5635 81.4372 105.053 81.4372 105.053C81.4372 105.053 93.6329 100.058 94.0433 100.732C94.8788 102.079 83.1229 107.69 83.1229 107.69C83.1229 107.69 93.6329 104.863 93.6036 105.566C93.9554 107.09 83.0496 110.474 83.0496 110.474C83.0496 110.474 90.4374 109.639 90.3787 111.133C89.9243 111.851 81.2173 113.33 81.2173 113.33L71.4696 117.257L62.4401 121.608L61.4141 111.514Z" fill="#FEB3A2"/>
<path d="M37.7851 137.473C37.7851 137.473 39.8812 142.63 41.6695 147.684C43.4579 152.738 50.4205 167.74 50.3326 172.706C50.2593 177.672 40.8633 192 38.3568 196.131C37.2721 197.918 36.8763 198.211 35.8795 199.325C34.8828 200.438 35.689 200.863 34.7069 201.727C33.2704 202.972 32.3469 202.137 31.2036 203.529C30.0749 204.921 32.7867 205.346 31.9951 206.518C31.2036 207.69 29.9283 207.045 29.1807 208.334C28.4332 209.609 29.7671 211.967 29.7671 211.967L41.3471 216.978C41.3471 216.978 56.8848 191.956 59.8897 187.502C62.9093 183.049 64.2286 181.364 65.5771 176.588C66.9257 171.812 65.8556 135.349 65.8556 135.349L37.7851 137.473Z" fill="#0B2C3D"/>
<path d="M38.65 82.8151C38.65 82.8151 30.2948 87.3712 27.2899 91.9126C24.285 96.4687 25.9413 106.636 28.1401 113.331C29.8844 118.634 31.5554 126.149 33.1092 132.331C34.663 138.513 38.7087 147.157 38.7087 147.157C44.1469 147.142 44.5426 146.937 44.5426 146.937L69.491 137.298L72.3347 134.47C72.3347 134.47 66.4274 124.083 65.2108 122.443C64.8883 122.003 68.5235 121.549 66.7206 118.517C65.8411 117.052 64.5072 110.664 63.5251 109.99C62.543 109.316 57.823 110.796 57.823 110.796C57.823 110.796 49.805 96.5273 49.5411 96.0292C48.6909 94.3737 50.4206 92.7769 50.4206 92.7769L60.8133 86.7119L63.9941 84.6317L50.7138 80.0316L51.52 81.7603C51.52 81.7603 49.6144 83.7087 46.756 83.4011C44.2348 83.1227 42.4172 81.9214 42.4172 81.9214C42.8716 80.1342 42.3732 79.8265 42.3732 79.8265L38.65 82.8151Z" fill="#FF5200"/>
<path d="M43.6189 147.64C43.6189 147.64 47.2102 151.889 50.4936 156.137C53.7624 160.386 65.0492 172.486 66.5151 177.218C67.9809 181.965 63.5248 198.504 62.4254 203.207C61.9564 205.243 61.6778 205.653 61.0622 207.016C60.4612 208.378 61.37 208.539 60.6957 209.653C59.7136 211.293 58.5703 210.781 57.9253 212.451C57.2804 214.121 59.9922 213.681 59.611 215.044C59.2299 216.406 57.8081 216.186 57.5002 217.637C57.1778 219.087 59.1859 220.904 59.1859 220.904L71.7481 222.061C71.7481 222.061 78.7254 193.45 80.2059 188.279C81.6863 183.107 82.4193 181.1 82.214 176.134C82.0088 171.168 69.6373 136.858 69.6373 136.858L43.6189 147.64Z" fill="#0B2C3D"/>
<path d="M42.5491 77.8048L43.8684 75.3436C43.8684 75.3436 39.6028 70.5678 41.01 69.3958C42.4172 68.2238 44.3668 70.3481 44.3668 70.3481C44.3668 70.3481 44.8065 60.9576 50.5672 60.6646C54.7301 60.4595 55.2578 64.7079 55.2578 64.7079C55.2578 64.7079 58.512 57.134 55.1259 54.6289C51.7399 52.1238 52.1943 56.0206 50.6991 55.8448C49.204 55.669 50.6405 51.8015 46.4043 52.7977C42.3879 53.7352 43.4286 57.7932 41.7136 58.8627C39.984 59.9321 39.2364 59.1703 38.2689 59.9467C36.2314 61.5875 35.1614 62.2907 35.1907 67.6818C35.22 73.0876 42.5491 77.8048 42.5491 77.8048Z" fill="#0B2C3D"/>
<path d="M187.842 187.414L185.819 197.581C185.819 197.581 186.185 199.295 191.609 199.032C197.047 198.768 197.765 199.119 200.389 199.749C203.013 200.379 207.997 199.837 207.997 199.837L207 197.479C207 197.479 201.884 195.706 200.067 193.948C198.571 192.498 196.505 188.337 196.505 188.337L187.842 187.414Z" fill="#F85432"/>
<path d="M158.613 178.624L154.157 187.429C154.157 187.429 153.937 189.172 159.17 190.681C164.403 192.19 164.96 192.761 167.232 194.212C169.504 195.662 172.846 197.01 174.4 196.761C175.939 196.512 174.605 195.105 173.403 193.23C172.201 191.355 169.167 189.963 168.61 187.956C168.053 185.949 167.686 182.873 167.686 182.873L158.613 178.624Z" fill="#F85432"/>
<path d="M199.978 92.059L201.21 117.96L222.464 117.945L220.881 90.3889L199.978 92.059Z" fill="#FF5200"/>
<path d="M39.3829 93.773C37.3747 89.8176 33.3437 91.2386 33.1678 91.3119C32.9772 91.3851 32.772 91.2826 32.6987 91.0921C32.6254 90.9017 32.728 90.6966 32.9186 90.6233C32.9625 90.6087 37.7265 88.9093 40.0278 93.4507C42.1972 97.7285 47.87 113.858 48.1045 114.546C48.1631 114.722 48.0898 114.913 47.9286 114.986C47.1517 115.411 45.1582 116.788 45.4074 118.033C45.4367 118.209 45.4807 118.238 45.4807 118.238C45.6566 118.238 46.3015 117.652 46.6387 117.33C47.3716 116.656 48.0459 115.997 48.5736 116.465C49.028 116.861 48.7641 117.711 48.2804 119.19C48.1192 119.688 47.8553 120.48 47.8113 120.86C48.7495 120.348 49.6729 118.209 50.0687 116.905C50.098 116.817 50.1567 116.744 50.2446 116.685L56.4157 113.257C56.0786 112.525 55.8587 111.382 56.7675 110.679C57.8962 109.785 61.3995 109.214 61.5461 109.185C61.7074 109.155 61.8539 109.243 61.9272 109.375L67.9224 120.245C67.9371 120.274 67.9518 120.304 67.9518 120.333C68.0983 120.919 68.0251 122.237 66.6912 123.073C65.2986 123.937 63.0559 124.523 62.6455 124.625L45.3488 135.525C45.2901 135.554 45.2315 135.583 45.1582 135.583C45.1435 135.583 45.0703 135.583 44.953 135.583C44.0735 135.583 40.6141 135.481 38.2102 133.84C38.049 133.723 38.005 133.503 38.1076 133.327C38.2249 133.152 38.4447 133.122 38.6206 133.225C40.9073 134.778 44.4106 134.807 45.0409 134.836L62.3083 123.952C62.3377 123.937 62.3816 123.922 62.4256 123.908C62.4549 123.908 64.9175 123.307 66.31 122.428C67.4094 121.754 67.2921 120.758 67.2628 120.538L61.4142 109.946C60.3002 110.137 57.9695 110.65 57.2219 111.25C56.4157 111.88 57.2219 113.184 57.2219 113.199C57.2806 113.286 57.2952 113.389 57.2659 113.492C57.2366 113.594 57.178 113.667 57.09 113.726L50.7283 117.257C50.4791 118.018 49.4384 121.036 48.0166 121.578C47.6208 121.725 47.4009 121.608 47.2836 121.49C46.8879 121.109 47.1224 120.362 47.5915 118.956C47.782 118.37 48.1045 117.432 48.0898 117.066C47.8553 117.183 47.4156 117.594 47.1517 117.857C46.4335 118.531 45.8178 119.102 45.2461 118.927C44.9676 118.839 44.7771 118.575 44.7038 118.165C44.3667 116.451 46.5361 114.957 47.3276 114.488" fill="white"/>
<path d="M230.863 231.642C229.896 228.477 227.404 226.221 224.385 225.738L186.083 219.6C185.701 219.541 185.32 219.805 185.247 220.2C185.188 220.596 185.452 220.962 185.848 221.035L224.15 227.174C226.627 227.569 228.665 229.444 229.486 232.081L232.315 241.296H168.727C168.331 241.296 168.009 241.618 168.009 242.014C168.009 242.409 168.331 242.732 168.727 242.732H174.796C173.623 243.816 172.875 245.413 172.875 247.2C172.875 250.467 175.323 253.118 178.328 253.118C181.333 253.118 183.781 250.467 183.781 247.2C183.781 245.413 183.019 243.816 181.861 242.732H209.287C208.114 243.816 207.366 245.413 207.366 247.2C207.366 250.467 209.814 253.118 212.819 253.118C215.824 253.118 218.272 250.467 218.272 247.2C218.272 245.413 217.51 243.816 216.352 242.732H233.282C233.517 242.732 233.722 242.629 233.868 242.439C234 242.248 234.044 242.014 233.971 241.794L230.863 231.642ZM182.33 247.185C182.33 249.646 180.527 251.653 178.314 251.653C176.1 251.653 174.297 249.646 174.297 247.185C174.297 244.724 176.1 242.717 178.314 242.717C180.527 242.717 182.33 244.724 182.33 247.185ZM216.836 247.185C216.836 249.646 215.033 251.653 212.819 251.653C210.606 251.653 208.803 249.646 208.803 247.185C208.803 244.724 210.606 242.717 212.819 242.717C215.033 242.717 216.836 244.724 216.836 247.185Z" fill="#0B2C3D"/>
<path d="M250.901 147.523C249.406 147.523 248.146 148.666 247.838 150.175H246.431C243.528 150.175 241.051 152.431 240.553 155.522L238.999 165H155.359C154.054 165 152.852 165.571 151.958 166.597C150.976 167.74 150.536 169.292 150.771 170.831L154.992 198.489C154.904 198.592 154.831 198.709 154.802 198.856C154.758 199.163 154.904 199.442 155.154 199.588L156.297 207.06C156.634 209.242 158.217 210.942 160.24 211.279L225.821 222.061C226.085 222.105 226.363 222.134 226.627 222.134C227.668 222.134 228.694 221.797 229.588 221.167C230.82 220.274 231.64 218.926 231.904 217.344L241.96 155.756C242.356 153.354 244.217 151.625 246.416 151.625H247.823C248.131 153.134 249.392 154.276 250.887 154.276C252.616 154.276 254.024 152.768 254.024 150.907C254.024 149.047 252.631 147.523 250.901 147.523ZM234.044 195.413L227.99 194.827L229.764 182.448L236.111 182.814L234.044 195.413ZM231.64 210.136L225.909 209.242L227.771 196.263L233.81 196.849L231.64 210.136ZM155.051 189.187L160.548 189.729L161.325 199.163L156.458 198.402L155.051 189.187ZM193.573 191.487L183.136 190.476V179.782L193.763 180.397L193.573 191.487ZM195.2 180.456L205.373 181.042L204.655 192.556L195.009 191.619L195.2 180.456ZM181.685 190.33L172.275 189.421L171.776 179.122L181.685 179.694V190.33ZM181.685 191.78V202.342L172.846 200.965L172.362 190.886L181.685 191.78ZM183.136 191.912L193.544 192.923L193.353 204.144L183.122 202.547V191.912H183.136ZM194.995 193.069L204.567 194.007L203.834 205.8L194.804 204.393L194.995 193.069ZM206.003 194.138L216.161 195.12L214.813 207.499L205.27 206.005L206.003 194.138ZM206.091 192.703L206.809 181.129L217.627 181.745L216.323 193.699L206.091 192.703ZM206.897 179.679L207.718 166.45H219.298L217.788 180.309L206.897 179.679ZM205.461 179.606L195.229 179.02L195.435 166.465H206.267L205.461 179.606ZM193.778 178.932L183.136 178.317V166.45H193.998L193.778 178.932ZM181.685 178.229L171.717 177.657L171.175 166.45H181.7V178.229H181.685ZM170.266 177.584L160.973 177.057L160.108 166.465H169.724L170.266 177.584ZM170.34 179.035L170.838 189.275L161.911 188.41L161.105 178.507L170.34 179.035ZM160.431 188.264L154.817 187.722L153.351 178.068L159.624 178.434L160.431 188.264ZM162.014 189.861L170.897 190.725L171.38 200.716L162.791 199.368L162.014 189.861ZM171.454 202.196L171.923 211.747L163.685 210.4L162.908 200.877L171.454 202.196ZM172.919 202.43L181.685 203.793V213.344L173.374 211.982L172.919 202.43ZM183.136 204.027L193.338 205.624L193.177 215.249L183.136 213.593V204.027ZM194.775 205.844L203.746 207.25L203.145 216.89L194.614 215.483L194.775 205.844ZM205.182 207.47L214.651 208.949L213.596 218.604L204.581 217.124L205.182 207.47ZM216.088 209.169L224.282 210.444L222.889 220.127L215.033 218.838L216.088 209.169ZM216.235 207.733L217.598 195.281L226.334 196.131L224.487 209.023L216.235 207.733ZM226.539 194.681L217.759 193.831L219.078 181.833L228.313 182.36L226.539 194.681ZM219.225 180.382L220.749 166.45H230.585L228.504 180.924L219.225 180.382ZM153.072 167.549C153.673 166.846 154.494 166.45 155.374 166.45H158.657L159.522 176.954L153.146 176.588L152.237 170.611C152.046 169.498 152.369 168.37 153.072 167.549ZM157.748 206.854L156.693 199.896L161.457 200.643L162.234 210.151L160.504 209.872C159.082 209.638 157.983 208.422 157.748 206.854ZM228.767 219.995C227.976 220.567 227.008 220.801 226.085 220.64L224.311 220.347L225.704 210.663L231.406 211.557L230.497 217.109C230.306 218.296 229.676 219.351 228.767 219.995ZM236.331 181.364L229.969 180.998L232.065 166.45H238.779L236.331 181.364ZM250.901 152.826C249.963 152.826 249.201 151.962 249.201 150.892C249.201 149.823 249.963 148.959 250.901 148.959C251.839 148.959 252.602 149.823 252.602 150.892C252.602 151.962 251.839 152.826 250.901 152.826Z" fill="#0B2C3D"/>
<path d="M183.444 21.6084H245.375C247.72 21.6084 249.626 23.718 249.626 26.3256C249.626 28.9333 247.72 31.0428 245.375 31.0428H183.444C181.099 31.0428 179.193 28.9333 179.193 26.3256C179.193 23.7326 181.099 21.6084 183.444 21.6084Z" fill="white"/>
<path d="M245.375 31.4091H183.444C180.893 31.4091 178.827 29.1238 178.827 26.3256C178.827 23.5275 180.893 21.2422 183.444 21.2422H245.375C247.925 21.2422 249.992 23.5275 249.992 26.3256C249.978 29.1384 247.911 31.4091 245.375 31.4091Z" fill="#FF5200"/>
<path d="M39.1921 174.859C39.1921 176.866 37.565 178.493 35.5568 178.493C33.5486 178.493 31.9216 176.866 31.9216 174.859C31.9216 172.852 33.5486 171.226 35.5568 171.226C37.565 171.241 39.1921 172.867 39.1921 174.859Z" fill="white"/>
<path d="M284.674 14.0345C284.674 18.8689 280.745 22.795 275.908 22.795C271.071 22.795 267.142 18.8689 267.142 14.0345C267.142 9.20006 271.071 5.27393 275.908 5.27393C280.745 5.27393 284.674 9.20006 284.674 14.0345Z" fill="#C8E5F9"/>
<path d="M127.757 29.1383C126.878 28.2593 125.705 27.7759 124.459 27.7759C123.213 27.7759 122.041 28.2593 121.161 29.1383C120.282 30.0173 119.798 31.1893 119.798 32.4345C119.783 33.6797 120.282 34.8517 121.161 35.7307C122.041 36.6097 123.213 37.0931 124.459 37.0931C125.705 37.0931 126.878 36.6097 127.757 35.7307C128.637 34.8517 129.121 33.6797 129.121 32.4345C129.121 31.1893 128.637 30.0173 127.757 29.1383ZM127.025 34.9982C126.365 35.6428 125.456 36.053 124.459 36.053C123.477 36.053 122.583 35.6721 121.894 34.9982C121.205 34.3097 120.839 33.4014 120.839 32.4345C120.839 31.453 121.205 30.5447 121.894 29.8708C122.583 29.1823 123.492 28.8014 124.459 28.8014C126.468 28.8014 128.095 30.4421 128.095 32.4345C128.08 33.4307 127.67 34.339 127.025 34.9982Z" fill="white"/>
<path d="M223.505 123.79C223.505 120.655 225.572 118.106 228.122 118.106C230.673 118.106 232.74 120.655 232.74 123.79C232.74 126.925 230.673 129.475 228.122 129.475C225.572 129.475 223.505 126.925 223.505 123.79Z" fill="white"/>
<path d="M228.108 127.585C228.064 127.585 228.005 127.57 227.976 127.526C227.858 127.424 225.015 124.918 225.059 122.75C225.073 122.062 225.367 121.49 225.924 121.022C226.261 120.743 226.627 120.641 226.979 120.729C227.507 120.846 227.902 121.344 228.122 121.695C228.357 121.344 228.767 120.846 229.31 120.714C229.676 120.641 230.043 120.743 230.38 121.022C230.893 121.446 231.157 121.974 231.171 122.618C231.23 124.787 228.357 127.409 228.24 127.526C228.21 127.57 228.152 127.585 228.108 127.585ZM226.73 121.124C226.554 121.124 226.363 121.197 226.173 121.359C225.704 121.739 225.469 122.208 225.455 122.765C225.425 124.494 227.521 126.574 228.093 127.101C228.665 126.545 230.79 124.362 230.761 122.648C230.746 122.12 230.541 121.71 230.116 121.359C229.867 121.153 229.632 121.08 229.398 121.139C228.87 121.256 228.43 121.959 228.298 122.208C228.269 122.281 228.196 122.325 228.108 122.325C228.034 122.325 227.946 122.281 227.917 122.208C227.917 122.208 227.477 121.285 226.862 121.139C226.832 121.124 226.788 121.124 226.73 121.124Z" fill="#FF5200"/>
<path d="M256.208 11.1777H172.729C173.594 7.22228 175.998 4.48277 180.468 4.65857L248.952 4.64392C253.496 4.64392 255.724 7.91082 256.208 11.1777Z" fill="url(#paint3_linear_20_269)"/>
<path d="M248.526 9.75668H242.751C242.311 9.75668 241.945 9.39043 241.945 8.95094V6.87068C241.945 6.43119 242.311 6.06494 242.751 6.06494H248.526C248.966 6.06494 249.332 6.43119 249.332 6.87068V8.93629C249.332 9.39043 248.966 9.75668 248.526 9.75668ZM242.751 6.47513C242.531 6.47513 242.355 6.65093 242.355 6.87068V8.93629C242.355 9.15604 242.531 9.33184 242.751 9.33184H248.526C248.746 9.33184 248.922 9.15604 248.922 8.93629V6.87068C248.922 6.65093 248.746 6.47513 248.526 6.47513H242.751Z" fill="white"/>
<path d="M247.163 9.06808H243.044C242.78 9.06808 242.575 8.84833 242.575 8.58464V7.23686C242.575 6.97316 242.78 6.75342 243.044 6.75342H245.697L247.163 9.06808Z" fill="white"/>
<path d="M249.758 7.61781V8.0866C249.758 8.1745 249.699 8.2331 249.611 8.2331H249.127V7.47131H249.611C249.699 7.47131 249.758 7.54456 249.758 7.61781Z" fill="white"/>
<path d="M187.211 7.32483L186.654 7.92546C186.141 7.42737 185.437 7.13438 184.66 7.13438C183.869 7.13438 183.165 7.44202 182.637 7.95476L182.066 7.36877C182.74 6.70954 183.649 6.31399 184.66 6.31399C185.642 6.29934 186.551 6.69489 187.211 7.32483Z" fill="white"/>
<path d="M186.375 8.2038L185.804 8.80444C185.51 8.52609 185.1 8.35029 184.66 8.35029C184.206 8.35029 183.795 8.52609 183.502 8.81909L182.916 8.21845C183.37 7.77895 183.971 7.51526 184.66 7.51526C185.32 7.52991 185.921 7.7936 186.375 8.2038Z" fill="white"/>
<path d="M185.51 9.11209L184.66 10.0057L183.795 9.12674C184.015 8.90699 184.323 8.77515 184.66 8.77515C184.983 8.77515 185.29 8.90699 185.51 9.11209Z" fill="white"/>
<path d="M195.082 6.021H193.954V10.0204H195.082V6.021Z" fill="white"/>
<path d="M193.412 6.90002H192.283V10.0058H193.412V6.90002Z" fill="white"/>
<path d="M191.858 7.64709H190.729V10.0057H191.858V7.64709Z" fill="white"/>
<path d="M190.319 8.83374H189.19V10.0204H190.319V8.83374Z" fill="white"/>
<defs>
<linearGradient id="paint0_linear_20_269" x1="198.985" y1="99.6183" x2="313.038" y2="99.6183" gradientUnits="userSpaceOnUse">
<stop stop-color="#E4F1F9"/>
<stop offset="1" stop-color="#ADCFF1"/>
</linearGradient>
<linearGradient id="paint1_linear_20_269" x1="103.312" y1="172.281" x2="204.513" y2="75.9111" gradientUnits="userSpaceOnUse">
<stop stop-color="white"/>
<stop offset="1" stop-color="#D9E5E5"/>
</linearGradient>
<linearGradient id="paint2_linear_20_269" x1="153.062" y1="153.749" x2="134.098" y2="221.426" gradientUnits="userSpaceOnUse">
<stop stop-color="#FFD875"/>
<stop offset="1" stop-color="#E9B500"/>
</linearGradient>
<linearGradient id="paint3_linear_20_269" x1="143.475" y1="7.91169" x2="226.953" y2="7.91169" gradientUnits="userSpaceOnUse">
<stop stop-color="#E4F1F9"/>
<stop offset="1" stop-color="#ADCFF1"/>
</linearGradient>
</defs>
</svg>
