<svg width="355" height="328" viewBox="0 0 355 328" fill="none" xmlns="http://www.w3.org/2000/svg">
<path d="M290.788 306.156C375.043 228.635 263.811 142.189 279.644 82.5168C295.91 21.2293 234.489 -12.4197 149.419 24.0431C66.6097 59.5402 21.3551 123.009 10.5611 167.114C-7.268 240.023 58.9425 325.536 118.65 305.19C172.57 286.842 235.138 357.353 290.788 306.156Z" fill="#DAECFF"/>
<path d="M243.404 328C224.96 328 206.299 321.89 187.971 315.879C162.408 307.504 138.275 299.596 115.324 307.404C91.923 315.38 65.4621 308.004 42.7433 287.175C9.18065 256.406 -7.16825 205.875 2.99368 164.317C14.7356 116.299 63.616 51.9814 146.375 16.5009C195.438 -4.52765 241.441 -4.14471 266.455 17.4999C282.738 31.5855 288.093 52.9638 281.524 77.6552C275.486 100.399 287.777 127.338 300.8 155.859C322.637 203.71 347.385 257.938 292.733 308.204C276.734 322.955 260.152 328 243.404 328ZM135.365 302.593C152.795 302.593 170.857 308.52 188.486 314.297C222.997 325.603 258.688 337.307 291.619 307.005L292.185 307.621L291.619 307.005C345.373 257.555 320.891 203.91 299.286 156.575C286.147 127.771 273.723 100.565 279.91 77.2557C286.297 53.1968 281.125 32.4347 265.358 18.7819C240.843 -2.44644 195.505 -2.72948 147.024 18.0493C64.7968 53.2801 16.2491 117.098 4.60695 164.7C-5.42193 205.708 10.7274 255.557 43.8576 285.943C66.1274 306.355 91.9729 313.598 114.775 305.823C121.494 303.542 128.38 302.593 135.365 302.593Z" fill="#DAECFF"/>
<path d="M217.825 284.045C217.825 289.622 213.301 294.135 207.746 294.135C202.174 294.135 197.667 289.606 197.667 284.045C197.667 278.467 202.191 273.955 207.746 273.955C213.317 273.955 217.825 278.467 217.825 284.045Z" fill="#C8E5F9"/>
<path d="M146.242 54.9949C144.795 53.3466 142.633 52.3143 140.271 52.3143C135.831 52.3143 132.205 55.9273 132.205 60.3894C132.188 63.453 133.918 66.1336 136.446 67.4989C137.577 68.1315 138.891 68.4812 140.271 68.4812C142.5 68.4812 144.512 67.5821 145.993 66.1169C147.44 64.6518 148.354 62.6371 148.354 60.4061C148.338 58.3249 147.539 56.4435 146.242 54.9949ZM145.028 65.1679C143.814 66.4 142.117 67.1492 140.255 67.1492C138.409 67.1492 136.729 66.4 135.515 65.1845C134.267 63.9691 133.486 62.2542 133.502 60.3728C133.502 56.6599 136.546 53.613 140.255 53.613C142.284 53.613 144.13 54.5287 145.361 55.9773C146.392 57.1594 147.007 58.7078 147.007 60.3894C147.024 62.2542 146.259 63.9525 145.028 65.1679Z" fill="white"/>
<path d="M326.606 128.37C325.175 126.955 323.279 126.156 321.267 126.156C319.255 126.156 317.359 126.938 315.928 128.37C314.514 129.802 313.733 131.683 313.733 133.715C313.716 135.729 314.514 137.627 315.928 139.043C317.359 140.475 319.255 141.257 321.267 141.257C323.279 141.257 325.175 140.475 326.606 139.043C328.019 137.627 328.801 135.729 328.801 133.715C328.818 131.7 328.019 129.802 326.606 128.37ZM325.425 137.877C324.36 138.926 322.88 139.592 321.267 139.592C319.687 139.592 318.223 138.976 317.109 137.877C315.995 136.762 315.396 135.28 315.396 133.715C315.396 132.133 315.995 130.651 317.109 129.552C318.223 128.437 319.704 127.821 321.267 127.821C324.51 127.821 327.155 130.468 327.138 133.715C327.138 135.33 326.473 136.812 325.425 137.877Z" fill="#9FC6F1"/>
<path d="M67.0421 52.4642C67.0421 41.492 75.9567 32.6011 86.9336 32.6011C97.9104 32.6011 106.825 41.492 106.825 52.4642C106.825 63.4363 97.9104 72.3272 86.9336 72.3272C75.9567 72.3272 67.0421 63.4363 67.0421 52.4642Z" fill="#18587A"/>
<path d="M161.144 36.3307H325.182C327.011 36.3307 328.508 37.8292 328.508 39.6606V233.779C328.508 235.628 327.011 237.109 325.182 237.109H161.144C159.314 237.109 157.818 235.628 157.818 233.779V39.6606C157.818 37.8292 159.314 36.3307 161.144 36.3307Z" fill="white"/>
<path d="M169.942 78.9872H208.594V122.959H169.942V78.9872Z" fill="#E8F2F9"/>
<path d="M217.875 79.4866H256.526V123.458H217.875V79.4866Z" fill="#E8F2F9"/>
<path d="M266.821 80.5022H305.473V124.474H266.821V80.5022Z" fill="#E8F2F9"/>
<path d="M170.258 141.257H224.66V215.315H170.258V141.257Z" fill="#E8F2F9"/>
<path d="M211.588 54.3955H308.317C310.147 54.3955 311.644 55.894 311.644 57.7254V59.4404C311.644 61.2718 310.147 62.7703 308.317 62.7703H211.588C209.758 62.7703 208.261 61.2718 208.261 59.4404V57.7254C208.261 55.8773 209.742 54.3955 211.588 54.3955Z" fill="#B0DAF9"/>
<path d="M160.545 67.2657H324.467V75.8736H160.545V67.2657Z" fill="#E8F2F9"/>
<path d="M171.805 46.6701C169.792 46.6701 168.162 45.055 168.162 43.0571C168.162 41.0591 169.792 39.4441 171.805 39.4441C173.817 39.4441 175.464 41.0591 175.464 43.0571C175.447 45.055 173.817 46.6701 171.805 46.6701ZM171.805 40.2932C170.258 40.2932 168.994 41.542 168.994 43.0737C168.994 44.6055 170.258 45.8542 171.805 45.8542C173.352 45.8542 174.632 44.6055 174.632 43.0737C174.616 41.5253 173.352 40.2932 171.805 40.2932Z" fill="#18587A"/>
<path d="M179.755 42.9072C179.755 41.1423 181.202 39.7104 182.981 39.7104C184.761 39.7104 186.208 41.1423 186.208 42.9072C186.208 44.6721 184.761 46.1039 182.981 46.1039C181.202 46.1039 179.755 44.6721 179.755 42.9072Z" fill="#18587A"/>
<path d="M194.075 46.6701C192.062 46.6701 190.432 45.055 190.432 43.0571C190.432 41.0591 192.062 39.4441 194.075 39.4441C196.087 39.4441 197.717 41.0591 197.717 43.0571C197.717 45.055 196.087 46.6701 194.075 46.6701ZM194.075 40.2932C192.528 40.2932 191.264 41.542 191.264 43.0737C191.264 44.6055 192.528 45.8542 194.075 45.8542C195.621 45.8542 196.885 44.6055 196.885 43.0737C196.885 41.5253 195.621 40.2932 194.075 40.2932Z" fill="#18587A"/>
<path d="M170.125 126.655H210.823V129.036H170.125V126.655Z" fill="#B0DAF9"/>
<path d="M217.026 126.772H257.724V129.153H217.026V126.772Z" fill="#B0DAF9"/>
<path d="M267.204 126.439H307.901V128.82H267.204V126.439Z" fill="#B0DAF9"/>
<path d="M170.375 131.317H211.072V133.698H170.375V131.317Z" fill="#B0DAF9"/>
<path d="M217.276 131.434H257.973V133.815H217.276V131.434Z" fill="#B0DAF9"/>
<path d="M267.437 131.101L289.174 130.868V133.248L267.437 133.482V131.101Z" fill="#B0DAF9"/>
<path d="M170.009 136.479L196.087 136.429V138.81L170.009 138.859V136.479Z" fill="#B0DAF9"/>
<path d="M237.217 148.283H297.873V157.257H237.217V148.283Z" fill="#B0DAF9"/>
<path d="M287.162 156.908C286.929 156.908 286.746 156.725 286.746 156.491V149.149C286.746 148.916 286.929 148.733 287.162 148.733C287.395 148.733 287.578 148.916 287.578 149.149V156.491C287.578 156.725 287.395 156.908 287.162 156.908Z" fill="#18587A"/>
<path d="M290.671 150.847L295.095 150.714L293.133 153.911L290.671 150.847Z" fill="white"/>
<path d="M293.133 154.327C293 154.327 292.883 154.277 292.817 154.177L290.355 151.114C290.255 150.997 290.239 150.831 290.305 150.681C290.372 150.531 290.505 150.448 290.671 150.431L295.095 150.298C295.245 150.315 295.395 150.381 295.461 150.498C295.544 150.631 295.528 150.797 295.461 150.931L293.499 154.127C293.432 154.244 293.299 154.31 293.166 154.327H293.133ZM291.519 151.23L293.083 153.178L294.33 151.147L291.519 151.23Z" fill="#18587A"/>
<path d="M183.829 87.8781C183.829 87.8781 185.809 89.7428 188.536 89.9593C191.28 90.1757 192.694 87.6616 192.694 87.6616C192.694 87.6616 195.438 88.0945 197.068 89.4098C198.715 90.7252 203.089 96.4194 203.089 96.4194L199.147 100.698L194.989 98.0677L196.519 112.869H181.518L181.85 98.0677L179.439 101.031L173.967 98.7337C173.967 98.7337 176.811 92.49 178.241 90.9416C179.655 89.4098 183.829 87.8781 183.829 87.8781Z" fill="#FF5200"/>
<path d="M228.469 86.8624H242.556L249.641 114.135L222.481 114.051L228.469 86.8624Z" fill="#FF5200"/>
<path d="M225.675 112.403C225.375 112.353 225.226 112.137 225.259 111.92L229.6 88.1944C229.65 87.9613 229.866 87.8281 230.082 87.8614C230.315 87.8947 230.465 88.1278 230.415 88.3442L226.074 112.07C226.041 112.27 225.874 112.403 225.675 112.403Z" fill="#B0DAF9"/>
<path d="M229.783 112.636C229.517 112.603 229.35 112.403 229.367 112.187L231.695 88.8105C231.712 88.5774 231.928 88.4109 232.144 88.4442C232.377 88.4608 232.544 88.6773 232.51 88.8937L230.182 112.27C230.182 112.47 229.999 112.636 229.783 112.636Z" fill="#B0DAF9"/>
<path d="M234.456 112.187C234.223 112.187 234.04 112.004 234.04 111.77L234.257 88.7273C234.257 88.4942 234.473 88.2777 234.672 88.311C234.905 88.311 235.088 88.4942 235.088 88.7273L234.872 111.77C234.872 112.004 234.689 112.187 234.456 112.187Z" fill="#B0DAF9"/>
<path d="M238.914 111.637C238.697 111.637 238.514 111.454 238.498 111.238L237.5 88.2943C237.483 88.0612 237.666 87.8781 237.899 87.8614C238.099 87.8281 238.315 88.0279 238.331 88.261L239.329 111.204C239.346 111.437 239.163 111.621 238.93 111.637H238.914Z" fill="#B0DAF9"/>
<path d="M243.138 112.187C242.938 112.187 242.755 112.037 242.722 111.837L239.379 88.7938C239.346 88.5607 239.512 88.3609 239.728 88.3276C239.945 88.2943 240.161 88.4442 240.194 88.6773L243.537 111.72C243.57 111.954 243.404 112.153 243.188 112.187C243.171 112.187 243.155 112.187 243.138 112.187Z" fill="#B0DAF9"/>
<path d="M246.448 111.554C246.265 111.554 246.082 111.421 246.048 111.221L240.992 88.3442C240.943 88.1111 241.092 87.8947 241.308 87.8447C241.541 87.7948 241.757 87.9446 241.807 88.1611L246.863 111.038C246.913 111.271 246.764 111.487 246.547 111.537C246.514 111.554 246.481 111.554 246.448 111.554Z" fill="#B0DAF9"/>
<path d="M228.569 84.6647H242.29V86.7459H228.569V84.6647Z" fill="#FF5200"/>
<path d="M235.803 84.1486C236.336 84.1486 236.751 84.5815 236.751 85.0976V86.2631C236.751 86.7959 236.336 87.2121 235.803 87.2121C235.271 87.2121 234.855 86.7792 234.855 86.2631V85.0976C234.855 84.5815 235.288 84.1486 235.803 84.1486Z" fill="#FF5200"/>
<path d="M290.239 87.8281L300.866 87.5284C300.866 87.5284 299.12 91.9406 299.885 94.1384C300.65 96.3361 300.8 100.682 300.417 101.897C300.035 103.113 292.135 102.963 289.324 102.879C286.513 102.796 283.087 104.028 278.53 104.178C273.973 104.328 270.929 103.562 270.929 103.562C270.929 103.562 270.63 102.047 272.293 101.431C273.973 100.815 278.979 99.9824 281.108 98.4673C283.237 96.9522 287.112 95.1207 287.877 93.6722C288.642 92.2403 290.239 87.8281 290.239 87.8281Z" fill="#FF5200"/>
<path d="M270.78 103.329C270.78 103.329 269.715 107.208 270.547 108.574C271.378 109.939 274.805 110.172 277.682 110.089C280.576 110.005 284.667 109.639 287.245 109.256C289.823 108.873 296.01 109.389 297.607 109.09C299.203 108.79 300.384 107.841 300.534 106.159C300.683 104.494 301.382 102.48 300.168 102.014C298.954 101.564 295.943 102.38 292.018 102.413C288.941 102.447 284.867 103.346 280.459 103.712C276.085 104.111 270.78 103.329 270.78 103.329Z" fill="white"/>
<path d="M288.759 97.8678C288.625 97.8678 288.492 97.8012 288.426 97.6847L286.397 94.821C286.264 94.6378 286.314 94.3714 286.497 94.2382C286.68 94.105 286.946 94.155 287.079 94.3381L289.108 97.2019C289.241 97.385 289.191 97.6514 289.008 97.7846C288.925 97.8345 288.842 97.8678 288.759 97.8678Z" fill="#E8F2F9"/>
<path d="M286.513 99.4662C286.38 99.4662 286.247 99.3996 286.164 99.2664L284.085 95.9365C283.969 95.7367 284.019 95.4869 284.218 95.3704C284.418 95.2538 284.667 95.3038 284.784 95.5036L286.863 98.8335C286.979 99.0333 286.929 99.2831 286.729 99.3996C286.68 99.4496 286.596 99.4662 286.513 99.4662Z" fill="#E8F2F9"/>
<path d="M284.135 101.031C283.985 101.031 283.852 100.948 283.769 100.815L281.906 97.435C281.79 97.2352 281.873 96.9855 282.073 96.8689C282.272 96.7524 282.522 96.8356 282.638 97.0354L284.501 100.415C284.617 100.615 284.534 100.865 284.334 100.981C284.268 101.015 284.201 101.031 284.135 101.031Z" fill="#E8F2F9"/>
<path d="M281.274 101.914C281.108 101.914 280.958 101.814 280.892 101.664L279.744 98.9168C279.661 98.7003 279.761 98.4672 279.977 98.3673C280.193 98.2841 280.426 98.384 280.526 98.6004L281.673 101.348C281.757 101.564 281.657 101.797 281.441 101.897C281.391 101.914 281.324 101.914 281.274 101.914Z" fill="#E8F2F9"/>
<path d="M292.235 102.646C292.035 102.596 291.952 102.463 292.002 102.33C292.035 102.18 292.983 98.6837 295.128 97.3018C297.257 95.9365 300.068 96.0031 300.184 96.0031C300.318 96.0031 300.434 96.1196 300.417 96.2528C300.417 96.386 300.301 96.5192 300.168 96.5026C300.151 96.5026 297.39 96.436 295.395 97.718C293.415 99 292.501 102.413 292.484 102.447C292.451 102.58 292.334 102.646 292.235 102.646Z" fill="#E8F2F9"/>
<path d="M278.547 104.062C278.447 104.062 278.347 103.995 278.314 103.912L276.867 100.365C276.817 100.232 276.883 100.099 277 100.032C277.116 99.9824 277.266 100.032 277.333 100.166L278.78 103.712C278.829 103.845 278.763 103.978 278.646 104.045C278.597 104.062 278.58 104.062 278.547 104.062Z" fill="#E8F2F9"/>
<path d="M289.44 90.0758C289.307 90.0758 289.191 89.9759 289.191 89.8261C289.191 89.6929 289.291 89.5763 289.44 89.5763L300.184 89.2267C300.317 89.2267 300.434 89.3266 300.434 89.4598C300.434 89.593 300.334 89.7095 300.184 89.7095L289.44 90.0758Z" fill="#E8F2F9"/>
<path d="M194.075 145.419L199.447 153.911L204.819 145.17C204.819 145.17 210.939 146.685 212.369 148.2C212.835 148.699 215.197 149.249 214.665 150.814C213.6 153.977 208.76 158.872 208.76 158.872L205.567 168.612L212.453 201.879L186.94 202.461L192.395 168.346L188.786 158.09C188.786 158.09 184.179 154.177 183.38 151.18C183.048 149.948 185.642 148.833 185.859 148.267C186.607 146.335 194.075 145.419 194.075 145.419Z" fill="#FF5200"/>
<path d="M192.278 167.78H205.733V169.961H192.278V167.78Z" fill="#0100BC"/>
<path d="M199.23 167.197C199.812 167.197 200.295 167.68 200.295 168.263V169.728C200.295 170.311 199.812 170.794 199.23 170.794C198.648 170.794 198.166 170.327 198.166 169.728V168.263C198.183 167.68 198.648 167.197 199.23 167.197Z" fill="#0D2A8A"/>
<path d="M199.23 170.943C198.548 170.943 198 170.394 198 169.711V168.246C198 167.563 198.548 167.014 199.23 167.014C199.912 167.014 200.461 167.563 200.461 168.246V169.711C200.461 170.394 199.912 170.943 199.23 170.943ZM199.23 167.364C198.731 167.364 198.332 167.763 198.332 168.263V169.728C198.332 170.211 198.731 170.627 199.23 170.627C199.729 170.627 200.128 170.227 200.128 169.728V168.263C200.128 167.763 199.729 167.364 199.23 167.364Z" fill="#E8F2F9"/>
<path d="M254.58 164.467H336.159C337.988 164.467 339.485 165.965 339.485 167.797V208.938C339.485 210.769 337.988 212.268 336.159 212.268H254.58C252.751 212.268 251.254 210.769 251.254 208.938V167.797C251.254 165.948 252.751 164.467 254.58 164.467Z" fill="#FF5200"/>
<path d="M308.134 183.597C308.118 183.447 307.785 179.868 309.914 177.387C311.111 175.988 312.808 175.222 314.987 175.106C317.049 175.006 318.745 175.572 319.993 176.804C322.338 179.118 322.221 182.931 322.205 183.098L320.542 183.031C320.542 182.998 320.641 179.784 318.812 177.986C317.914 177.104 316.65 176.688 315.07 176.771C313.373 176.854 312.059 177.437 311.178 178.469C309.498 180.417 309.781 183.397 309.781 183.431L308.134 183.597Z" fill="#E9F5FE"/>
<path d="M304.625 201.079C303.245 201.079 302.114 199.964 302.114 198.582L304.243 185.462C304.226 184.213 305.357 183.098 306.721 183.098H324.55C325.93 183.098 327.045 184.213 327.045 185.595L329.04 198.199C329.057 199.714 327.926 200.83 326.562 200.83L304.625 201.079ZM306.737 184.779C306.272 184.779 305.906 185.146 305.906 185.612L303.777 198.732C303.794 199.065 304.159 199.431 304.625 199.431L326.579 199.198C327.045 199.198 327.427 198.832 327.427 198.365L325.431 185.762C325.415 185.179 325.049 184.796 324.583 184.796H306.737V184.779Z" fill="#E9F5FE"/>
<path d="M313.107 198.382L309.931 190.923L311.461 190.274L313.573 195.202L320.841 186.328L322.138 187.393L313.107 198.382Z" fill="#E9F5FE"/>
<path d="M265.857 182.681H291.652C294.33 182.681 296.492 184.846 296.492 187.526C296.492 190.207 294.33 192.372 291.652 192.372H265.857C263.179 192.372 261.017 190.207 261.017 187.526C261.017 184.846 263.179 182.681 265.857 182.681Z" fill="white"/>
<path d="M96.6798 63.1533H77.5534C75.8237 63.1533 74.4266 61.7547 74.4266 60.0398V47.9022C74.4266 46.1873 75.8237 44.7887 77.5534 44.7887H96.6798C98.4095 44.7887 99.8065 46.1873 99.8065 47.9022V60.0398C99.8065 61.7547 98.4095 63.1533 96.6798 63.1533ZM77.5534 45.6212C76.2894 45.6212 75.2582 46.6368 75.2582 47.9022V60.0398C75.2582 61.2885 76.2894 62.3208 77.5534 62.3208H96.6798C97.9438 62.3208 98.9749 61.3052 98.9749 60.0398V47.9022C98.9749 46.6535 97.9438 45.6212 96.6798 45.6212H77.5534Z" fill="white"/>
<path d="M74.9755 49.1176C74.7426 49.1176 74.5597 48.9345 74.5597 48.7014C74.5597 48.4683 74.7426 48.2852 74.9755 48.2852L99.0747 48.2019C99.3076 48.2019 99.4905 48.3851 99.4905 48.6181C99.4905 48.8512 99.3076 49.0344 99.0747 49.0344L74.9755 49.1176Z" fill="white"/>
<path d="M75.0752 59.6568C74.8424 59.6568 74.6594 59.4737 74.6594 59.2406C74.6594 59.0075 74.8424 58.8243 75.0752 58.8243L99.1745 58.7411C99.4073 58.7411 99.5902 58.9242 99.5902 59.1573C99.5902 59.3904 99.4073 59.5736 99.1745 59.5736L75.0752 59.6568Z" fill="white"/>
<path d="M79.9151 45.7877C79.6657 45.771 79.4827 45.5712 79.4993 45.3382L79.7654 40.9426C79.7654 40.8261 79.832 40.7095 79.9318 40.6263C80.0316 40.5597 80.1646 40.5264 80.281 40.5597L97.2786 44.5223C97.4948 44.5723 97.6445 44.8054 97.5946 45.0218C97.5447 45.2383 97.3285 45.3881 97.0956 45.3382L80.5804 41.4921L80.3476 45.3881C80.3143 45.6046 80.1313 45.7877 79.9151 45.7877Z" fill="white"/>
<path d="M96.9292 45.0051C96.8627 45.0051 96.8128 44.9885 96.7463 44.9718L84.4388 39.0279L84.3224 41.6086C84.3058 41.8417 84.1062 42.0415 83.89 42.0082C83.6572 41.9915 83.4908 41.8084 83.4908 41.5753L83.6405 38.3619C83.6405 38.2287 83.7237 38.0955 83.8401 38.0289C83.9565 37.9623 84.1062 37.9456 84.2393 38.0122L97.1122 44.2226C97.3117 44.3225 97.4115 44.5722 97.3117 44.772C97.2286 44.9219 97.0789 45.0051 96.9292 45.0051Z" fill="white"/>
<path d="M108.671 94.2883C108.671 83.3161 117.586 74.4252 128.563 74.4252C139.556 74.4252 148.454 83.3161 148.454 94.2883C148.454 105.26 139.539 114.151 128.563 114.151C117.586 114.151 108.671 105.244 108.671 94.2883Z" fill="white"/>
<path d="M128.646 105.71C128.513 105.71 128.38 105.643 128.313 105.543C128.014 105.144 121.145 95.6535 121.145 91.5077C121.145 87.2287 124.488 83.7323 128.579 83.7323C132.687 83.7323 136.014 87.2121 136.014 91.5077C136.014 95.6535 129.278 105.144 128.978 105.543C128.895 105.643 128.779 105.71 128.646 105.71ZM128.579 84.5648C124.937 84.5648 121.976 87.6783 121.976 91.5077C121.976 94.8876 127.249 102.58 128.646 104.578C130.026 102.58 135.182 94.8876 135.182 91.5077C135.182 87.6783 132.222 84.5648 128.579 84.5648Z" fill="#FF5200"/>
<path d="M128.613 95.437C126.134 95.437 124.105 93.4724 124.105 91.0415C124.105 88.6273 126.118 86.646 128.613 86.646C131.091 86.646 133.12 88.6107 133.12 91.0415C133.12 93.4724 131.091 95.437 128.613 95.437ZM128.613 87.4951C126.583 87.4951 124.937 89.0935 124.937 91.0582C124.937 93.0228 126.583 94.6212 128.613 94.6212C130.642 94.6212 132.288 93.0228 132.288 91.0582C132.288 89.0935 130.642 87.4951 128.613 87.4951Z" fill="#FF5200"/>
<path d="M84.6384 115.816C84.6384 115.816 85.2538 111.454 86.4347 108.624C87.6321 105.793 90.6092 104.228 90.6092 104.228C90.6092 104.228 91.6736 107.491 93.6195 109.073C95.5654 110.638 98.4593 113.469 98.4593 113.718C98.2099 115.034 95.765 123.808 90.4429 126.122C90.526 126.006 90.9252 129.686 90.7422 129.869C92.2557 130.934 96.8959 130.868 96.8959 130.868C96.8959 130.868 104.114 131.817 105.811 133.382C107.507 134.947 109.403 124.191 109.403 120.695C109.403 113.435 107.607 109.906 104.114 105.777C100.921 102.014 98.1932 102.164 95.9646 100.182C93.0208 97.5682 91.9896 94.3049 85.2871 95.1374C81.046 95.6535 76.8881 100.415 74.6262 107.009C70.6346 118.697 65.9445 116.749 63.3666 123.725C60.7887 130.701 61.72 135.829 61.72 135.829L82.1271 127.338L82.5595 119.479C82.5595 119.479 78.8673 115.417 80.7965 112.603C81.5283 111.87 84.6384 115.816 84.6384 115.816Z" fill="#0B2C3D"/>
<path d="M60.1567 137.91L60.0901 137.594C60.0735 137.528 58.7596 130.435 61.3375 123.475C62.4685 120.412 64.0318 119.013 65.695 117.531C67.8738 115.583 70.3519 113.369 72.5971 106.776C74.9256 99.9824 79.1833 95.2706 83.4576 94.7378C88.8795 94.0718 90.709 96.0698 92.6715 98.1843C93.1871 98.7337 93.7193 99.3164 94.3181 99.8492C95.1663 100.598 96.0976 101.048 97.0955 101.514C98.6922 102.263 100.505 103.129 102.484 105.46C105.944 109.539 107.823 113.152 107.823 120.528C107.823 123.375 106.376 132.782 104.613 133.548C104.347 133.665 104.064 133.615 103.831 133.382C102.201 131.883 95.1164 130.934 95.0498 130.934C94.8835 130.934 90.3431 130.984 88.7963 129.885L88.5635 129.719L88.7298 129.552C88.813 129.169 88.5968 127.005 88.4803 126.272L87.9481 126.505L88.5302 125.69C93.5364 123.492 96.0644 115.383 96.4136 113.485C96.58 112.636 94.8336 111.387 93.2869 110.272C92.7214 109.872 92.1559 109.456 91.657 109.057C89.9938 107.708 88.9627 105.21 88.6633 104.378C87.9481 104.811 85.786 106.259 84.838 108.524C83.6738 111.288 83.0584 115.617 83.0584 115.666L82.9753 116.282L82.626 115.766C81.7944 114.518 80.1812 112.52 79.4161 112.486C79.2997 112.47 79.2498 112.52 79.1833 112.586C76.8881 115.4 80.8797 119.113 80.913 119.146L80.9961 119.229L80.5471 127.338L60.1567 137.91ZM85.4534 95.0874C84.8713 95.0874 84.2226 95.1207 83.5075 95.2206C79.4161 95.7201 75.3081 100.315 73.0462 106.942C70.751 113.652 68.2396 115.916 66.011 117.898C64.3312 119.396 62.8843 120.711 61.7866 123.658C59.5746 129.669 60.2897 135.763 60.5226 137.211L80.098 127.055L80.5304 119.446C79.9317 118.863 76.4557 115.234 78.834 112.32C78.9837 112.12 79.1833 112.037 79.4494 112.037C80.4473 112.087 81.994 114.068 82.6925 115.05C82.9088 113.752 83.4909 110.588 84.4222 108.374C85.6363 105.493 88.5801 103.928 88.6966 103.862L88.946 103.729L89.0292 103.995C89.0458 104.028 90.0936 107.208 91.973 108.724C92.4553 109.106 93.0208 109.523 93.5863 109.922C95.3991 111.238 97.1122 112.47 96.896 113.602C96.5301 115.533 93.9688 123.725 88.9294 126.106C89.0292 126.722 89.3119 128.803 89.2121 129.602C90.7589 130.535 95.0665 130.485 95.0997 130.485C95.4324 130.518 102.451 131.467 104.181 133.065C104.297 133.182 104.38 133.165 104.447 133.132C105.811 132.533 107.374 123.825 107.374 120.545C107.374 113.319 105.528 109.772 102.152 105.777C100.239 103.529 98.476 102.68 96.9126 101.947C95.8814 101.464 94.9168 100.998 94.0187 100.216C93.3867 99.6661 92.8545 99.0834 92.3389 98.5173C90.6425 96.6858 89.1622 95.0874 85.4534 95.0874Z" fill="#0B2C3D"/>
<path d="M82.2601 119.279L82.2102 126.822L75.4578 130.102L89.9606 146.568L97.1288 130.535L90.6425 129.902L90.3763 125.107L82.2601 119.279Z" fill="#FF9583"/>
<path d="M84.1893 114.95C82.8255 113.186 79.0335 109.672 80.3807 115.949C81.2788 120.128 89.4616 127.771 91.6569 126.306C98.293 121.877 98.8751 114.118 98.1932 113.019C97.2452 111.471 95.7982 110.522 93.8856 108.94C92.5883 107.874 90.5759 104.012 90.5759 104.012C90.5759 104.012 86.0022 106.626 85.603 110.289C85.2538 113.535 84.5719 115.467 84.1893 114.95Z" fill="#FF9583"/>
<path d="M122.126 211.136C122.126 211.136 125.07 211.652 126.118 217.03C127.166 222.408 127.149 248.931 127.149 248.931L116.588 250.845L112.264 225.005L108.106 221.359L122.126 211.136Z" fill="#FF9583"/>
<path d="M125.935 210.969L140.654 208.372C140.654 208.372 142.034 209.937 143.598 213.916C145.161 217.912 147.756 243.053 147.756 243.053L138.409 245.484C138.409 245.484 130.276 223.64 129.394 219.827C128.529 215.997 125.935 210.969 125.935 210.969Z" fill="#FF9583"/>
<path d="M74.1938 128.47L89.0791 145.286L97.0956 128.67C97.0956 128.67 105.295 130.385 108.355 134.014C111.415 137.644 120.663 159.721 120.663 159.721L109.785 165.932L106.26 194.786C106.26 194.786 134.517 194.886 138.891 198.898C143.282 202.911 144.23 208.072 144.23 208.072C144.23 208.072 141.552 209.887 135.165 210.453C128.762 211.019 121.128 211.152 116.338 216.247C98.2431 235.428 92.4387 226.354 92.4387 226.354C92.4387 226.354 68.6388 213.433 66.7428 200.047C64.8302 186.677 70.0858 173.674 70.0858 173.674L69.2209 166.132L48.9802 162.502C48.9802 162.502 57.7617 142.539 60.1401 137.86C62.5516 133.165 74.1938 128.47 74.1938 128.47Z" fill="#FF5200"/>
<path d="M52.0903 163.068C52.0903 163.068 49.8117 174.606 51.0924 178.536C53.3709 185.595 92.9542 198.499 92.9542 198.499L100.339 198.632L102.102 191.872L86.5843 188.209L64.9465 172.891L66.8093 165.432L52.0903 163.068Z" fill="#FF9583"/>
<path d="M118.933 160.537L120.762 166.281L109.752 166.398L118.933 160.537Z" fill="#FF9583"/>
<path d="M62.5017 196.817H109.386V200.397L65.2459 200.497L62.5017 196.817Z" fill="white"/>
<path d="M110.151 167.064H146.042C147.872 167.064 149.369 168.562 149.369 170.394L141.984 197.183C141.984 197.183 140.487 200.513 138.658 200.513H102.767C102.767 200.513 99.4406 199.015 99.4406 197.183L106.825 170.394C106.825 168.562 108.322 167.064 110.151 167.064Z" fill="white"/>
<path d="M115.607 250.612L127.881 248.331C127.881 248.331 128.047 262.217 129.644 267.961C131.224 273.705 132.205 277.368 132.205 277.368L127.199 281.764L120.363 277.735C120.363 277.735 121.211 274.804 120.247 270.275C119.266 265.763 115.607 250.612 115.607 250.612Z" fill="#FFFEEE"/>
<path d="M137.477 245.651L148.454 242.387L152.196 264.531L155.29 268.277L152.113 274.055L146.425 273.489L143.581 271.857C142.433 265.347 137.477 245.651 137.477 245.651Z" fill="#FFFEEE"/>
<path d="M151.514 274.155C151.514 274.155 152.978 268.96 155.606 268.377C158.233 267.795 158.549 269.426 162.025 271.807C165.501 274.188 167.181 275.004 167.181 275.004C167.181 275.004 167.88 276.386 164.42 277.551C160.978 278.717 152.412 278.068 148.238 275.97C144.063 273.855 141.602 274.971 141.702 271.158C141.768 268.727 142.783 268.677 142.999 268.76C143.198 268.86 143.148 270.875 143.914 271.241C144.679 271.591 151.514 274.155 151.514 274.155Z" fill="#0B2C3D"/>
<path d="M127.149 281.88C127.149 281.88 129.344 276.952 132.022 276.752C134.7 276.552 134.783 278.217 137.876 281.064C140.97 283.912 142.517 284.977 142.517 284.977C142.517 284.977 142.999 286.442 139.423 287.092C135.847 287.741 127.465 285.876 123.64 283.179C119.814 280.498 117.22 281.231 117.868 277.485C118.284 275.087 120.846 275.287 120.846 275.287C120.846 275.287 120.762 276.702 121.211 277.635C121.66 278.55 127.149 281.88 127.149 281.88Z" fill="#0B2C3D"/>
<path d="M300.75 319.958L283.802 307.754C283.802 307.754 263.445 300.778 258.156 296.748C252.867 292.719 236.668 272.207 235.205 266.696C233.741 261.168 239.745 234.162 239.745 234.162C239.745 234.162 248.626 236.46 250.456 246.899C252.269 257.339 251.82 264.032 251.82 264.032L267.952 277.102C267.952 277.102 263.312 263.932 261.133 259.553C258.955 255.158 254.78 242.537 254.78 242.537L243.454 216.464L233.691 187.66C233.691 187.66 231.446 179.501 235.171 177.154C242.356 172.642 251.304 193.137 251.304 193.137L275.819 240.406C275.819 240.406 264.859 214.049 272.26 210.686C279.661 207.323 285.798 213.167 285.798 213.167C285.798 213.167 284.767 207.806 290.122 206.773C295.478 205.741 300.816 210.203 300.816 210.203C301.798 208.006 301.415 206.94 304.924 205.758C310.995 203.71 325.415 223.506 328.974 230.916C332.55 238.341 340.682 268.161 345.156 276.452C349.647 284.727 357.747 293.435 357.747 293.435L357.031 320.141L300.75 319.958Z" fill="#FEB3A2"/>
<path d="M69.1211 166.431C69.0545 166.431 68.988 166.415 68.9381 166.381C68.7385 166.282 68.6554 166.032 68.7552 165.815L74.8424 153.994C74.9421 153.794 75.2083 153.711 75.4078 153.828C75.6074 153.927 75.6906 154.194 75.5741 154.394L69.487 166.215C69.4038 166.348 69.2708 166.431 69.1211 166.431Z" fill="white"/>
<path d="M108.821 167.763C108.788 167.763 108.738 167.763 108.704 167.747C108.488 167.68 108.355 167.447 108.422 167.231C110.65 159.638 107.657 150.714 107.623 150.631C107.54 150.414 107.657 150.181 107.889 150.098C108.106 150.031 108.339 150.131 108.422 150.364C108.555 150.731 111.532 159.622 109.22 167.464C109.17 167.647 109.004 167.763 108.821 167.763Z" fill="white"/>
<path d="M200.544 118.597C200.544 116.516 202.224 114.851 204.303 114.851C206.382 114.851 208.062 116.532 208.062 118.597C208.062 120.661 206.382 122.343 204.303 122.343C202.224 122.343 200.544 120.661 200.544 118.597Z" fill="#C4E7FF"/>
<path d="M204.303 121.194C204.253 121.194 204.203 121.178 204.17 121.144C204.07 121.078 201.725 119.396 201.742 117.898C201.742 117.398 202.008 116.982 202.49 116.665C202.806 116.466 203.122 116.399 203.438 116.482C203.821 116.582 204.137 116.865 204.32 117.082C204.519 116.865 204.835 116.566 205.234 116.482C205.567 116.416 205.883 116.482 206.182 116.682C206.631 116.982 206.864 117.365 206.864 117.831C206.898 119.329 204.536 121.078 204.436 121.161C204.403 121.178 204.353 121.194 204.303 121.194ZM203.189 116.915C203.039 116.915 202.906 116.965 202.756 117.065C202.39 117.298 202.224 117.581 202.207 117.914C202.191 118.88 203.588 120.145 204.286 120.661C204.985 120.112 206.415 118.797 206.382 117.831C206.382 117.515 206.216 117.265 205.9 117.065C205.7 116.932 205.501 116.882 205.318 116.932C204.852 117.032 204.503 117.598 204.503 117.598C204.453 117.664 204.386 117.714 204.303 117.714C204.203 117.698 204.137 117.664 204.103 117.598C204.103 117.598 203.787 117.048 203.322 116.949C203.289 116.932 203.239 116.915 203.189 116.915Z" fill="#18587A"/>
<path d="M215.596 210.287C215.596 208.205 217.276 206.54 219.355 206.54C221.434 206.54 223.113 208.222 223.113 210.287C223.113 212.368 221.434 214.033 219.355 214.033C217.292 214.033 215.596 212.351 215.596 210.287Z" fill="#C4E7FF"/>
<path d="M219.355 212.884C219.305 212.884 219.255 212.867 219.222 212.834C219.122 212.767 216.777 211.086 216.793 209.587C216.793 209.088 217.06 208.672 217.542 208.355C217.841 208.155 218.174 208.089 218.49 208.172C218.872 208.272 219.188 208.555 219.371 208.772C219.571 208.555 219.887 208.255 220.286 208.172C220.619 208.106 220.935 208.172 221.234 208.372C221.683 208.672 221.916 209.055 221.916 209.521C221.949 211.003 219.588 212.767 219.488 212.851C219.454 212.867 219.405 212.884 219.355 212.884ZM218.24 208.622C218.091 208.622 217.958 208.672 217.808 208.772C217.442 209.005 217.276 209.288 217.259 209.621C217.242 210.586 218.64 211.852 219.338 212.368C220.037 211.818 221.467 210.503 221.434 209.537C221.434 209.221 221.267 208.971 220.951 208.772C220.752 208.638 220.552 208.605 220.369 208.638C219.904 208.738 219.554 209.304 219.554 209.304C219.504 209.371 219.421 209.404 219.355 209.421C219.272 209.421 219.188 209.371 219.155 209.304C219.155 209.304 218.839 208.755 218.373 208.638C218.34 208.622 218.29 208.622 218.24 208.622Z" fill="#18587A"/>
<path d="M248.227 118.597C248.227 116.516 249.907 114.851 251.986 114.851C254.065 114.851 255.745 116.532 255.745 118.597C255.745 120.661 254.065 122.343 251.986 122.343C249.924 122.343 248.227 120.661 248.227 118.597Z" fill="#C4E7FF"/>
<path d="M251.986 121.194C251.936 121.194 251.886 121.178 251.853 121.144C251.753 121.078 249.408 119.396 249.425 117.898C249.425 117.398 249.691 116.982 250.173 116.665C250.489 116.466 250.805 116.399 251.121 116.482C251.504 116.582 251.82 116.865 252.003 117.082C252.202 116.865 252.518 116.566 252.917 116.482C253.25 116.416 253.566 116.482 253.865 116.682C254.314 116.982 254.547 117.365 254.547 117.831C254.58 119.329 252.219 121.078 252.119 121.161C252.086 121.178 252.036 121.194 251.986 121.194ZM250.872 116.915C250.722 116.915 250.589 116.965 250.439 117.065C250.073 117.298 249.907 117.581 249.89 117.914C249.874 118.88 251.271 120.145 251.969 120.661C252.668 120.112 254.098 118.797 254.065 117.831C254.065 117.515 253.899 117.265 253.583 117.065C253.383 116.932 253.183 116.882 253 116.932C252.535 117.032 252.186 117.598 252.186 117.598C252.136 117.664 252.069 117.714 251.986 117.714C251.886 117.698 251.82 117.664 251.786 117.598C251.786 117.598 251.47 117.048 251.005 116.949C250.971 116.932 250.921 116.915 250.872 116.915Z" fill="#18587A"/>
<path d="M296.193 118.597C296.193 116.516 297.873 114.851 299.952 114.851C302.031 114.851 303.71 116.532 303.71 118.597C303.71 120.661 302.031 122.343 299.952 122.343C297.873 122.343 296.193 120.661 296.193 118.597Z" fill="#C4E7FF"/>
<path d="M299.952 121.194C299.902 121.194 299.852 121.178 299.819 121.144C299.719 121.078 297.374 119.396 297.39 117.898C297.39 117.398 297.656 116.982 298.139 116.665C298.438 116.466 298.771 116.399 299.087 116.482C299.469 116.582 299.769 116.865 299.968 117.082C300.168 116.865 300.484 116.566 300.883 116.482C301.216 116.416 301.532 116.482 301.831 116.682C302.28 116.982 302.513 117.365 302.513 117.831C302.546 119.313 300.184 121.078 300.085 121.161C300.051 121.178 300.002 121.194 299.952 121.194ZM298.837 116.915C298.704 116.915 298.555 116.965 298.405 117.065C298.039 117.298 297.873 117.581 297.856 117.914C297.839 118.88 299.236 120.145 299.935 120.661C300.634 120.112 302.064 118.797 302.031 117.831C302.031 117.515 301.864 117.265 301.548 117.065C301.349 116.932 301.166 116.882 300.966 116.932C300.5 117.032 300.151 117.598 300.151 117.598C300.101 117.664 300.035 117.714 299.952 117.714C299.868 117.714 299.785 117.664 299.752 117.598C299.752 117.598 299.436 117.048 298.97 116.949C298.937 116.932 298.887 116.915 298.837 116.915Z" fill="#18587A"/>
<path d="M43.6581 157.923H43.076C42.8432 157.923 41.9451 157.907 40.6312 157.707L40.0491 157.624L40.232 156.458L40.8141 156.541C42.0781 156.741 42.9263 156.741 43.076 156.741H43.6581V157.923ZM36.5065 156.675L35.9577 156.475C35.1926 156.192 34.4608 155.859 33.7457 155.509L33.2135 155.243L33.7457 154.177L34.2779 154.444C34.9598 154.777 35.6583 155.093 36.3735 155.359L36.9223 155.559L36.5065 156.675ZM30.1366 153.245L29.6875 152.878C29.0722 152.379 28.4734 151.83 27.8913 151.247L27.4755 150.831L28.3071 149.998L28.7229 150.414C29.2551 150.964 29.8372 151.48 30.4193 151.963L30.8684 152.329L30.1366 153.245ZM25.197 147.95L24.881 147.451C24.4486 146.785 24.0494 146.085 23.6835 145.353L23.4174 144.82L24.4652 144.287L24.7313 144.82C25.0806 145.503 25.4631 146.185 25.8789 146.818L26.1949 147.317L25.197 147.95ZM22.0536 141.473L21.8707 140.907C21.6212 140.125 21.405 139.342 21.222 138.593L21.089 138.027L22.2366 137.761L22.3696 138.343C22.5359 139.076 22.7522 139.825 22.985 140.574L23.1679 141.14L22.0536 141.473ZM23.7002 120.745L22.6191 120.262L22.8519 119.729C23.5505 118.131 23.7002 117.914 24.1825 118.014L23.8997 119.163L24.0494 118.597L24.5484 118.896C24.5317 118.93 24.2656 119.396 23.8997 120.212L23.7002 120.745Z" fill="#DAECFF"/>
<path d="M344.341 254.458L343.793 253.409L344.308 253.126C344.724 252.91 345.406 252.527 346.271 251.928L346.753 251.595L347.418 252.577L346.936 252.91C346.021 253.526 345.306 253.925 344.857 254.175L344.341 254.458ZM350.262 250.346L349.464 249.48L349.896 249.08C350.429 248.581 350.994 248.048 351.56 247.449L351.975 247.016L352.824 247.832L352.408 248.265C351.826 248.881 351.244 249.43 350.695 249.946L350.262 250.346ZM355.135 245.084L354.187 244.385L354.537 243.919C354.986 243.32 355.435 242.687 355.867 242.021L356.2 241.521L357.181 242.171L356.848 242.67C356.399 243.353 355.934 244.002 355.468 244.635L355.135 245.084ZM359.011 239.057L357.963 238.508L358.229 237.975C358.578 237.309 358.911 236.61 359.243 235.877L359.493 235.344L360.574 235.827L360.324 236.36C359.992 237.109 359.643 237.825 359.293 238.508L359.011 239.057ZM361.888 232.497L360.773 232.114L360.973 231.565C361.223 230.849 361.455 230.1 361.672 229.334L361.838 228.768L362.969 229.101L362.803 229.667C362.57 230.449 362.337 231.199 362.087 231.931L361.888 232.497ZM363.751 225.554L362.586 225.421L362.653 224.838C362.736 224.089 362.803 223.307 362.819 222.541L362.836 221.958L364.017 221.991L364 222.574C363.983 223.373 363.917 224.189 363.834 224.988L363.751 225.554ZM362.586 218.512L362.487 217.929C362.37 217.163 362.22 216.414 362.037 215.664L361.904 215.098L363.052 214.815L363.185 215.381C363.368 216.164 363.534 216.946 363.651 217.746L363.751 218.328L362.586 218.512ZM360.84 211.802L360.624 211.252C360.324 210.536 360.025 209.82 359.692 209.121L359.443 208.588L360.507 208.072L360.757 208.605C361.106 209.321 361.422 210.054 361.722 210.803L361.938 211.352L360.84 211.802ZM357.763 205.558L357.447 205.059C357.031 204.393 356.599 203.743 356.167 203.111L355.834 202.628L356.799 201.962L357.131 202.445C357.58 203.094 358.013 203.76 358.445 204.443L358.761 204.942L357.763 205.558ZM353.722 199.847L353.339 199.398C352.824 198.765 352.308 198.182 351.809 197.633L351.41 197.2L352.291 196.401L352.691 196.834C353.189 197.4 353.722 197.999 354.254 198.632L354.636 199.081L353.722 199.847ZM348.965 194.686L348.533 194.286C347.468 193.287 346.786 192.738 346.786 192.738L346.321 192.372L347.052 191.456L347.518 191.822C347.518 191.822 348.217 192.388 349.331 193.42L349.763 193.82L348.965 194.686Z" fill="#DAECFF"/>
</svg>
