<svg width="163" height="166" viewBox="0 0 163 166" fill="none" xmlns="http://www.w3.org/2000/svg">
<path d="M159.315 33.1651C161.349 33.1651 163 34.816 163 36.8501C163 38.8843 161.349 40.5352 159.315 40.5352C157.281 40.5352 155.63 38.8843 155.63 36.8501C155.63 34.816 157.281 33.1651 159.315 33.1651Z" fill="#94D4FF"/>
<path d="M159.315 128.976C161.349 128.976 163 130.627 163 132.661C163 134.695 161.349 136.346 159.315 136.346C157.281 136.346 155.63 134.695 155.63 132.661C155.63 130.627 157.281 128.976 159.315 128.976Z" fill="#94D4FF"/>
<path d="M140.891 151.086C144.962 151.086 148.261 154.384 148.261 158.456C148.261 162.528 144.962 165.826 140.891 165.826C136.819 165.826 133.521 162.528 133.521 158.456C133.521 154.384 136.819 151.086 140.891 151.086Z" fill="#3256C1"/>
<path d="M133.52 9.15527e-05C135.555 9.15527e-05 137.205 1.65098 137.205 3.68511C137.205 5.71924 135.555 7.37013 133.52 7.37013C131.486 7.37013 129.835 5.71924 129.835 3.68511C129.835 1.65098 131.486 9.15527e-05 133.52 9.15527e-05Z" fill="#94D4FF"/>
<path d="M81.9299 11.0554C41.2252 11.0554 8.22949 44.0511 8.22949 84.7558C8.22949 125.461 41.2252 158.456 81.9299 158.456C122.635 158.456 155.63 125.461 155.63 84.7558C155.63 44.0511 122.635 11.0554 81.9299 11.0554Z" fill="#FFD400"/>
<path d="M81.9296 140.031C51.4029 140.031 26.6543 115.282 26.6543 84.7558C26.6543 54.2291 51.4029 29.4805 81.9296 29.4805C112.456 29.4805 137.205 54.2291 137.205 84.7558C137.205 115.282 112.456 140.031 81.9296 140.031Z" fill="white"/>
<path d="M109.328 67.333C112.206 70.211 112.206 74.8762 109.328 77.7542L83.2709 103.815L72.8496 114.236L62.4247 103.815L54.6088 95.9951C53.172 94.5579 52.4497 92.6712 52.4497 90.7844C52.4497 88.8977 53.172 87.011 54.6088 85.5735C57.4871 82.6955 62.1524 82.6955 65.03 85.5735L72.8496 93.3894L98.9068 67.333C100.348 65.8958 102.231 65.1736 104.117 65.1736C106.004 65.1736 107.887 65.8958 109.328 67.333Z" fill="#07CC66"/>
<path d="M26.6543 158.456C28.6884 158.456 30.3393 160.107 30.3393 162.141C30.3393 164.175 28.6884 165.826 26.6543 165.826C24.6198 165.826 22.9692 164.175 22.9692 162.141C22.9692 160.107 24.6198 158.456 26.6543 158.456Z" fill="#94D4FF"/>
<path d="M17.442 7.37029C22.5311 7.37029 26.6546 11.4938 26.6546 16.5828C26.6546 21.6719 22.5311 25.7954 17.442 25.7954C12.3527 25.7954 8.22949 21.6719 8.22949 16.5828C8.22949 11.4938 12.3527 7.37029 17.442 7.37029Z" fill="#3256C1"/>
<path d="M4.5444 36.8502C6.57853 36.8502 8.22942 38.5011 8.22942 40.5352C8.22942 42.5694 6.57853 44.2203 4.5444 44.2203C2.5099 44.2203 0.859375 42.5694 0.859375 40.5352C0.859375 38.5011 2.5099 36.8502 4.5444 36.8502Z" fill="#94D4FF"/>
<path d="M4.5444 128.976C6.57853 128.976 8.22942 130.627 8.22942 132.661C8.22942 134.695 6.57853 136.346 4.5444 136.346C2.5099 136.346 0.859375 134.695 0.859375 132.661C0.859375 130.627 2.5099 128.976 4.5444 128.976Z" fill="#94D4FF"/>
<path d="M126.15 84.7552C126.15 82.7199 124.5 81.0701 122.465 81.0701C120.431 81.0701 118.78 82.7199 118.78 84.7552C118.78 105.075 102.25 121.605 81.9301 121.605C79.8949 121.605 78.2451 123.256 78.2451 125.29V139.905C79.4634 139.986 80.6916 140.03 81.9301 140.03C83.1687 140.03 84.3965 139.986 85.6152 139.905V128.823C108.28 126.944 126.15 107.897 126.15 84.7552Z" fill="#D0DCE7"/>
<path d="M37.71 84.7554C37.71 86.7902 39.3597 88.4404 41.395 88.4404C43.4299 88.4404 45.08 86.7902 45.08 84.7554C45.08 64.4362 61.6106 47.9052 81.9302 47.9052C83.9651 47.9052 85.6152 46.2554 85.6152 44.2201V29.6053C84.3966 29.525 83.1687 29.4801 81.9302 29.4801C80.6917 29.4801 79.4635 29.525 78.2452 29.6053V40.6873C55.5801 42.5663 37.71 61.6134 37.71 84.7554Z" fill="#D0DCE7"/>
</svg>
