<svg width="70" height="80" viewBox="0 0 70 80" fill="none" xmlns="http://www.w3.org/2000/svg">
<g clip-path="url(#clip0_447_7512)">
<path d="M35.0507 37.483C45.3427 37.483 55.6202 37.483 65.9122 37.483C68.9273 37.483 69.9855 38.527 69.9855 41.5302C70 52.9854 69.9855 64.4262 69.9855 75.8813C69.9855 78.9703 68.9418 79.9857 65.7962 79.9857C45.2268 79.9857 24.6428 79.9857 4.07331 79.9857C1.07269 80 0 78.9417 0 75.9385C0 64.4834 0 53.0426 0 41.5874C0 38.4984 1.0292 37.483 4.18927 37.483C14.4813 37.483 24.7587 37.483 35.0507 37.483ZM32.5865 61.5517C32.6154 62.1237 32.601 62.7101 32.7024 63.2678C32.9488 64.5263 33.8186 65.1698 35.0652 65.1555C36.2249 65.1269 37.0511 64.4834 37.2831 63.3107C37.3701 62.8531 37.428 62.3668 37.3701 61.9092C37.2541 60.8795 37.66 60.379 38.6457 59.9214C43.0669 57.9049 44.9078 52.8996 42.9219 48.6092C41.2404 44.9768 37.3121 42.9889 33.2678 43.7469C29.4844 44.4476 26.5417 47.8084 26.3243 51.6411C26.2663 52.7708 26.5127 53.8863 27.6579 54.1866C28.4552 54.4012 29.5568 54.2152 30.2526 53.7719C30.7745 53.443 30.9484 52.4419 31.0934 51.6983C31.4993 49.6961 32.8764 48.3661 34.8188 48.266C36.6743 48.1659 38.3993 49.4244 38.8196 51.1691C39.298 53.1427 38.4427 54.9732 36.4568 55.7455C33.7316 56.8037 32.4995 58.7201 32.5865 61.5517ZM37.3701 71.5624C37.3846 70.2181 36.3698 69.1169 35.0652 69.0883C33.7751 69.0454 32.6879 70.1037 32.6299 71.4337C32.572 72.8209 33.6736 74.0079 35.0072 73.9936C36.2974 73.9936 37.3556 72.8924 37.3701 71.5624Z" fill="#FF5200"/>
<path d="M16.3078 32.7637C13.6261 32.7637 11.2053 32.7637 8.62503 32.7637C8.62503 29.4745 8.42209 26.1995 8.65402 22.9675C9.62524 9.82483 20.5405 -0.0714864 33.8331 1.88121e-05C47.2997 0.071524 58.2295 10.7115 58.6644 24.2117C58.7513 27.0147 58.6789 29.8177 58.6789 32.7065C56.0696 32.7065 53.6199 32.7065 50.8802 32.7065C50.8802 32.1345 50.8946 31.5338 50.8802 30.9332C50.7787 27.7583 51.0251 24.5406 50.4888 21.4373C48.9957 12.7565 40.9216 6.97893 31.7892 7.76548C23.2802 8.49483 16.4382 15.817 16.3223 24.3547C16.2788 27.1148 16.3078 29.8606 16.3078 32.7637Z" fill="#FF5200"/>
</g>
<defs>
<clipPath id="clip0_447_7512">
<rect width="70" height="80" fill="white"/>
</clipPath>
</defs>
</svg>
