<svg width="22" height="23" viewBox="0 0 22 23" fill="none" xmlns="http://www.w3.org/2000/svg">
<path d="M21.409 10.1695C21.4085 10.169 21.408 10.1685 21.4075 10.168L12.4324 1.19409C12.0498 0.811401 11.5412 0.600586 11.0001 0.600586C10.4591 0.600586 9.95048 0.811234 9.56775 1.19392L0.597282 10.1633C0.59426 10.1663 0.591239 10.1695 0.588217 10.1725C-0.197385 10.9626 -0.196042 12.2444 0.592078 13.0325C0.952146 13.3927 1.4277 13.6013 1.93616 13.6231C1.95681 13.6252 1.97763 13.6262 1.99861 13.6262H2.35633V20.2304C2.35633 21.5373 3.41974 22.6006 4.72707 22.6006H8.23844C8.59431 22.6006 8.88304 22.3121 8.88304 21.9561V16.7783C8.88304 16.182 9.36817 15.6969 9.96459 15.6969H12.0357C12.6321 15.6969 13.1172 16.182 13.1172 16.7783V21.9561C13.1172 22.3121 13.4058 22.6006 13.7618 22.6006H17.2732C18.5805 22.6006 19.6439 21.5373 19.6439 20.2304V13.6262H19.9756C20.5165 13.6262 21.0251 13.4155 21.408 13.0328C22.197 12.2434 22.1973 10.9594 21.409 10.1695Z" fill="#7F8F98"/>
</svg>
