<svg width="24" height="21" viewBox="0 0 24 21" fill="none" xmlns="http://www.w3.org/2000/svg">
<path d="M1.5778e-05 5.56834C1.5778e-05 5.70323 1.5778e-05 5.77997 1.5778e-05 5.85904C1.5778e-05 9.85904 -0.00221699 13.859 1.5778e-05 17.859C1.5778e-05 19.6381 1.29725 20.9939 3.00309 20.9939C9.00253 20.9962 14.9997 20.9962 20.9992 20.9939C22.6939 20.9939 23.9956 19.6404 23.9978 17.8823C24.0023 13.8637 24 9.84741 23.9978 5.82881C23.9978 5.75671 23.9889 5.68462 23.9799 5.58462C23.8683 5.65671 23.7857 5.71253 23.7031 5.76834C20.0145 8.25439 16.3215 10.7381 12.6375 13.2358C12.1842 13.5428 11.8091 13.5381 11.3559 13.2311C8.14068 11.0474 4.91657 8.8823 1.69469 6.7102C1.14542 6.33811 0.593932 5.96834 1.5778e-05 5.56834ZM12.0011 0.996248C9.00253 0.996248 6.00392 0.993922 3.00532 0.998573C1.58528 1.0009 0.399681 1.97532 0.0893264 3.36602C0.0491366 3.54741 0.0803954 3.64043 0.232223 3.74276C4.09268 6.33811 7.94866 8.93811 11.8046 11.5428C11.952 11.6428 12.0503 11.6451 12.1976 11.5451C13.2202 10.8451 14.2495 10.1567 15.2766 9.46602C18.0988 7.56369 20.921 5.65904 23.7477 3.76369C23.9196 3.64741 23.9509 3.54276 23.9062 3.34509C23.5892 1.96834 22.4058 1.00322 20.9969 1.00322C17.9983 0.993922 14.9997 0.996248 12.0011 0.996248Z" fill="white"/>
<path d="M0 5.56836C0.593916 5.96836 1.14541 6.33813 1.69467 6.71022C4.91655 8.88231 8.14067 11.0474 11.3558 13.2312C11.8091 13.5381 12.1842 13.5428 12.6375 13.2358C16.3215 10.7381 20.0145 8.25673 23.703 5.76836C23.7857 5.71255 23.8705 5.65906 23.9799 5.58464C23.9866 5.68464 23.9978 5.75673 23.9978 5.82882C23.9978 9.84743 24 13.8637 23.9978 17.8823C23.9955 19.6405 22.6938 20.9939 20.9992 20.9939C14.9997 20.9963 9.00251 20.9963 3.00307 20.9939C1.29724 20.9939 0 19.6381 0 17.8591C0 13.8591 0 9.85906 0 5.85906C0 5.77999 0 5.70324 0 5.56836Z" fill="#FF5200"/>
<path d="M12.001 0.996187C14.9996 0.996187 17.9983 0.993861 20.9969 0.998512C22.4057 1.00084 23.5891 1.96595 23.9062 3.34037C23.953 3.53805 23.9218 3.6427 23.7476 3.75898C20.9209 5.65433 18.0987 7.55898 15.2765 9.46131C14.2494 10.1543 13.2201 10.8427 12.1975 11.5404C12.0502 11.6427 11.9497 11.638 11.8046 11.538C7.94857 8.93805 4.09259 6.33805 0.232135 3.7427C0.0803068 3.64037 0.049048 3.54735 0.0892378 3.36595C0.399592 1.97526 1.58519 1.00084 3.00523 0.998512C6.00384 0.993861 9.00244 0.996187 12.001 0.996187Z" fill="#FF5200"/>
</svg>
