<svg width="113" height="45" viewBox="0 0 113 45" fill="none" xmlns="http://www.w3.org/2000/svg">
<path d="M42.2711 0C42.2104 0.489497 42.5512 0.503894 42.9006 0.564361C47.3968 1.33892 50.7407 3.77488 53.4494 7.39716C55.2976 9.86768 56.031 12.6837 56.8367 15.5199C56.9407 15.8827 57.2496 16.7091 56.5364 16.6487C55.8376 16.5882 54.6854 16.9567 54.5294 15.6063C54.2782 13.441 53.5389 11.4542 52.3781 9.5855C49.1843 4.4429 44.5264 1.98102 38.5373 2.20274C32.6319 2.41869 28.2945 5.32976 25.4184 10.4464C25.1383 10.9475 25.1123 11.6414 24.1998 11.6212C22.7906 11.5896 22.6375 11.4485 23.2468 10.1873C25.4877 5.54283 29.0598 2.41293 33.9776 0.817748C34.7948 0.552843 34.7948 0.552843 35.0547 0C37.4601 0 39.8656 0 42.2711 0Z" fill="white"/>
<path d="M0.999897 31.0571C1.80268 30.7145 2.63723 30.654 3.50643 30.6569C9.74101 30.6771 15.9756 30.6655 22.2102 30.6684C22.6404 30.6684 23.0822 30.6396 23.501 30.7145C24.0063 30.8066 24.3904 31.1291 24.4135 31.6791C24.4395 32.2895 24.0554 32.6667 23.4952 32.7963C23.1285 32.8827 22.7328 32.8424 22.3488 32.8424C16.2095 32.8452 10.0702 32.8366 3.93093 32.8481C2.93467 32.851 1.94707 32.8452 0.997009 32.4939C0.999897 32.016 0.999897 31.538 0.999897 31.0571Z" fill="white"/>
<path d="M31.8809 44C32.1091 43.5105 31.6297 43.2888 31.4651 42.9577C30.9424 41.9009 31.1503 40.9997 32.0658 40.3028C32.8916 39.6723 33.7724 39.7039 34.5463 40.4065C35.3953 41.1753 35.5628 42.0708 34.9304 43.093C34.7571 43.3752 34.2113 43.499 34.4799 44.0029C33.6107 44 32.7444 44 31.8809 44Z" fill="white"/>
<path d="M44.0008 44C44.2896 43.4961 43.7207 43.3896 43.5619 43.0988C42.9786 42.0219 43.0941 41.0717 44.0673 40.3173C45.0173 39.5773 45.9472 39.7702 46.7528 40.585C47.5152 41.3567 47.4488 42.5286 46.6258 43.3752C46.4496 43.5566 46.0887 43.6286 46.3081 44C45.54 44 44.7719 44 44.0008 44Z" fill="white"/>
<path d="M38.9964 37.435C35.8228 37.435 32.6521 37.3947 29.4785 37.4551C28.1271 37.4811 27.4773 36.9282 27.1654 35.6469C25.6956 29.5973 24.142 23.5678 22.701 17.5125C22.4354 16.3981 21.9849 16.0152 20.8616 16.1044C19.6198 16.2023 18.3637 16.1505 17.1133 16.1102C16.2095 16.0814 15.4327 15.6725 15.45 14.6935C15.4644 13.7894 16.2354 13.3892 17.0613 13.3719C19.3195 13.3287 21.5806 13.3316 23.8388 13.3719C24.9217 13.3921 25.3751 14.1205 25.6407 15.1053C26.3858 17.8638 26.4118 17.8551 29.3197 17.8551C37.5872 17.8551 45.8547 17.8522 54.1223 17.8522C56.5595 17.8522 56.8194 18.1862 56.213 20.5704C55.4564 23.5419 54.6882 26.5077 53.9143 29.4735C53.2011 32.2002 52.1961 33.0065 49.32 33.0209C43.1663 33.0468 37.0154 33.0266 30.8617 33.041C30.4488 33.041 29.7904 32.7848 29.8481 33.6227C29.8914 34.2734 30.1716 34.7168 30.9281 34.665C31.214 34.6448 31.5057 34.6621 31.7945 34.6621C37.2262 34.6621 42.658 34.6621 48.0898 34.6621C48.4277 34.6621 48.7627 34.6506 49.0976 34.6679C50.0101 34.7111 50.7812 35.071 50.7725 36.0673C50.7638 37.0549 50.0217 37.4379 49.089 37.4379C47.0214 37.4407 44.9566 37.4379 42.889 37.4379C41.5925 37.435 40.293 37.435 38.9964 37.435ZM45.0722 23.9623C46.6373 23.7233 48.2082 23.5131 49.7647 23.2338C51.2288 22.9689 52.6928 22.6752 54.0789 22.1051C55.3149 21.5954 55.6383 20.5042 55.4506 19.3841C55.2716 18.3129 54.2089 18.7132 53.5158 18.7103C45.3927 18.6844 37.2696 18.6815 29.1493 18.7017C27.281 18.7045 25.2798 19.0933 24.9939 16.329C24.9448 15.8539 24.4597 15.4998 23.8908 15.6639C23.2006 15.8626 23.2555 16.4183 23.3883 16.9567C23.6771 18.1171 24.0698 19.2574 24.2575 20.435C24.4192 21.4601 24.9823 21.8863 25.9035 22.1454C29.0569 23.0323 32.2623 23.5937 35.5196 23.9421C36.6285 24.0602 37.2118 24.0228 36.8508 22.6867C36.6978 22.1137 36.8479 21.2931 37.5988 21.4486C39.5075 21.8488 41.5058 22.154 43.1663 23.1964C43.8102 23.6024 44.3185 23.9364 45.0722 23.9623ZM42.7389 29.1826C43.2385 28.5405 43.7554 27.9733 44.1596 27.337C44.4831 26.8273 43.868 26.6315 43.6572 26.2975C43.1518 25.4941 41.7628 25.2148 41.991 24.0573C42.1267 23.3692 41.8928 23.349 41.4539 23.2338C40.4374 22.9632 39.4209 22.6925 38.4073 22.4046C37.9568 22.2779 37.6074 22.2519 37.7691 22.8883C38.0666 24.0429 38.3755 25.1947 38.6874 26.3436C38.7336 26.5163 38.8145 26.7956 39.0311 26.6977C40.4778 26.0441 40.6742 27.6105 41.4885 28.0654C41.8495 28.2641 42.1209 28.6183 42.7389 29.1826Z" fill="white"/>
<path d="M14.4046 22.275C12.5305 22.275 10.6564 22.2692 8.77936 22.2778C8.04588 22.2807 7.33839 22.1339 7.30374 21.2787C7.2662 20.3458 7.9708 20.1154 8.77936 20.1154C12.5276 20.1183 16.2788 20.1125 20.027 20.1183C20.8154 20.1183 21.5402 20.3112 21.4969 21.2787C21.4564 22.1627 20.7489 22.2778 20.027 22.2778C18.1558 22.275 16.2816 22.275 14.4046 22.275Z" fill="white"/>
<path d="M37.0646 12.9918C38.7077 12.9889 40.3479 12.9832 41.991 12.9803C42.4473 13.2682 42.8487 13.2625 43.1634 12.7701C43.4378 12.7471 43.7121 12.7269 43.9835 12.7039C43.972 13.0494 44.0586 13.3546 44.3705 13.5533C44.4167 13.8326 44.4629 14.1119 44.512 14.3912C43.7612 15.7387 42.5541 15.9173 41.1391 15.8626C38.6644 15.7675 36.1867 15.8078 33.709 15.7906C33.7466 15.4306 33.7812 15.0678 33.8188 14.7079C34.148 14.4661 34.2519 14.181 33.992 13.8239C34.0556 13.5302 34.1191 13.2337 34.1826 12.94C34.4714 12.8507 34.7631 12.7586 35.0518 12.6693C35.3291 12.7211 35.6063 12.7701 35.8835 12.8219C36.2185 13.2797 36.6228 13.274 37.0646 12.9918Z" fill="white"/>
<path d="M49.678 16.2542C49.343 16.2542 49.0022 16.2168 48.673 16.26C47.6161 16.4068 46.9895 16.0901 47.0906 14.9038C47.0992 14.8116 47.0761 14.7137 47.0646 14.6187C46.6834 11.7681 46.6949 11.794 49.3141 10.5415C49.8772 10.2708 50.1689 10.2967 50.4721 10.815C51.2749 12.1885 51.8033 13.657 52.1181 15.2119C52.2682 15.9576 52.0401 16.2974 51.2518 16.2485C50.7262 16.2168 50.2006 16.2427 49.6722 16.2427C49.678 16.2485 49.678 16.2513 49.678 16.2542Z" fill="white"/>
<path d="M29.5534 16.2513C27.9103 16.2484 26.5299 14.3077 26.9833 12.7615C27.2576 11.8199 27.6042 10.4263 28.4531 10.2852C29.536 10.1038 30.5785 11.149 31.6441 11.6529C31.9675 11.8055 31.8029 12.2547 31.7365 12.5829C31.6008 13.2366 31.3697 13.8931 31.3726 14.5496C31.3697 15.995 30.7431 16.5623 29.5534 16.2513Z" fill="white"/>
<path d="M17.1393 25.6497C18.3839 25.6497 19.6314 25.6612 20.876 25.6468C21.6672 25.6381 22.2332 25.9606 22.2217 26.7755C22.213 27.5299 21.6182 27.8178 20.928 27.8207C18.3897 27.8351 15.8514 27.8351 13.3102 27.8265C12.5507 27.8236 11.9154 27.5069 11.9645 26.6834C12.0107 25.8973 12.6143 25.6151 13.4026 25.6381C14.6472 25.6784 15.8947 25.6525 17.1393 25.6497Z" fill="white"/>
<path d="M42.9122 9.45881C42.9584 9.54231 43.0075 9.62582 43.0537 9.7122C41.0034 10.5328 38.9069 10.4292 36.7671 10.1441C35.8228 10.0174 35.7246 9.54807 35.7997 8.81959L35.9037 8.89157L35.8026 8.81383C36.435 8.66122 36.6112 8.04215 36.9923 7.63903C38.416 6.12735 40.0447 6.11584 41.3846 7.65631C41.6358 7.94713 41.8524 8.26098 42.2595 8.34449C42.3259 8.3704 42.3577 8.41935 42.3635 8.48846C42.3 8.94916 42.4472 9.29469 42.9122 9.45881Z" fill="white"/>
<path d="M98.6335 27.5673C97.874 27.5673 97.2099 27.5673 96.6612 27.5673C97.2821 24.9039 97.233 22.2606 96.6756 19.5482C97.386 19.5482 98.2494 19.5511 99.1129 19.5482C99.8464 19.5453 100.614 19.5079 100.909 20.3832C101.209 21.2787 100.903 22.0216 100.164 22.9027C99.9936 22.0821 99.9214 21.4947 99.7424 20.9389C99.5893 20.4638 99.2457 20.0924 98.6711 20.1615C98.0329 20.2392 97.9896 20.7172 97.9953 21.2298C98.004 22.131 97.7961 23.1215 99.1331 23.3116C99.5547 23.372 99.4854 23.8385 99.6471 24.1063C100.323 25.2465 100.779 26.5221 101.986 27.5759C99.0753 27.7602 99.6615 24.7772 98.0329 23.827C98.0877 25.1285 97.6141 26.4012 98.6335 27.5673Z" fill="white"/>
<path d="M82.9502 23.0323C83.213 24.5353 82.7365 26.0959 83.7616 27.5414C82.1445 27.5414 80.64 27.5414 79.173 27.5414C79.8979 25.6583 79.0806 23.8356 79.1846 21.9439C78.4367 22.0907 78.6013 22.8624 78.0439 22.9516C78.4858 20.0348 78.8583 19.5309 80.6804 19.6029C80.305 20.0147 80.0163 20.3804 80.0653 20.9102C80.2328 22.6723 80.3455 24.4403 80.5014 26.2025C80.5447 26.6862 80.6573 27.2275 81.2349 27.3082C81.9135 27.4032 82.1416 26.8158 82.2658 26.3234C82.543 25.2408 82.7278 24.1322 82.9502 23.0323Z" fill="white"/>
<path d="M79.4734 11.843C78.9565 11.4974 78.8381 11.0511 78.4078 10.8553C77.2123 10.3083 76.6492 10.6192 76.6405 11.9092C76.6347 12.7212 76.6838 13.5389 76.6261 14.348C76.5741 15.0765 76.7271 15.6524 77.8938 16.0613C76.4644 16.0613 75.523 16.0613 74.5816 16.0613C75.5403 15.6783 75.3439 14.8577 75.3555 14.1263C75.3641 13.5044 75.4046 12.8767 75.3439 12.2605C75.292 11.7307 75.6876 10.9648 75.009 10.7229C74.2582 10.4551 73.4929 10.697 73.0049 11.4485C72.9298 11.5637 72.8143 11.6529 72.7103 11.7623C72.1732 10.1153 72.2223 10.0462 73.8163 10.0606C75.2573 10.0721 76.7185 10.219 78.1335 10.0232C79.7881 9.78996 79.7506 10.5559 79.4734 11.843Z" fill="white"/>
<path d="M95.0845 12.9515C94.9113 13.4727 94.4146 13.3748 94.0334 13.513C93.5858 13.6742 92.8552 13.0897 92.6935 13.8326C92.5202 14.6302 92.3354 15.5717 93.9034 16.0699C92.4509 16.0699 91.498 16.0699 90.4988 16.0699C91.6684 15.1254 91.6943 11.0684 90.3891 10.0635C91.9773 10.0635 93.3808 10.0376 94.7813 10.0721C95.6245 10.0923 96.7074 10.0145 96.7883 11.1692C96.8633 12.2317 96.127 12.8594 95.0412 12.9889C95.1856 12.6463 95.4455 12.3036 95.4484 11.961C95.457 11.0885 94.8708 10.6883 94.0623 10.6595C93.4154 10.6365 92.6993 10.5242 92.6011 11.555C92.5087 12.511 92.962 12.8565 93.7995 12.9198C94.2269 12.9486 94.6571 12.9429 95.0845 12.9515Z" fill="white"/>
<path d="M112.997 21.3219C112.391 20.579 111.796 20.0118 110.808 20.1701C110.262 20.2565 110.43 20.7518 110.395 21.1031C110.268 22.4852 111.16 22.9919 112.353 23.1791C112.264 23.3519 112.243 23.4642 112.183 23.4987C111.657 23.7982 110.724 23.2137 110.534 23.9421C110.311 24.7916 110.438 25.7446 110.488 26.6488C110.514 27.1296 110.973 27.0145 111.285 27.0145C111.894 27.0145 112.315 26.5681 112.818 26.3032C113.138 27.6566 113.138 27.645 111.851 27.6191C110.895 27.599 109.939 27.6162 109.162 27.6162C109.688 24.9269 109.61 22.3124 109.211 19.5165C110.153 19.5165 111.325 19.5683 112.492 19.4906C112.922 19.4618 112.983 19.5914 112.991 19.9024C113.006 20.3717 112.997 20.8468 112.997 21.3219Z" fill="white"/>
<path d="M95.5608 26.2428C95.942 27.4118 95.711 27.8668 94.4433 27.6422C93.5625 27.4867 92.6298 27.6134 91.8184 27.6134C92.3815 24.9068 92.3439 22.2635 91.8386 19.5482C92.4912 19.5482 93.3026 19.5511 94.117 19.5482C95.8063 19.5396 95.8063 19.5396 95.5522 21.5868C95.0439 20.6366 94.4693 19.9254 93.4153 20.1989C92.9186 20.3285 93.0976 20.8353 93.0889 21.1866C93.0514 22.4708 93.73 23.1215 95.0295 23.0639C94.9688 23.3087 94.9775 23.4383 94.9226 23.4728C94.3942 23.8039 93.4557 23.2165 93.2449 23.8932C92.9965 24.6793 93.1525 25.592 93.1409 26.4501C93.1323 26.9972 93.5048 27.0289 93.9206 27.0202C94.527 27.0058 94.9688 26.6229 95.5608 26.2428Z" fill="white"/>
<path d="M107.652 21.8258C107.048 20.6251 106.234 19.8217 104.917 20.2133C103.508 20.6337 103.144 21.8459 103.04 23.1474C102.855 25.4653 103.944 26.8474 106.127 27.1037C105.171 27.789 104.322 27.7717 103.407 27.0461C102.2 26.0873 101.749 23.9076 102.399 22.1454C103.008 20.4869 104.449 19.4877 106.136 19.5511C107.822 19.6144 108.001 19.8563 107.652 21.8258Z" fill="white"/>
<path d="M63.8653 22.0302C63.1723 20.5963 62.3464 19.8246 61.0267 20.2249C59.6868 20.6309 59.3085 21.774 59.1872 23.0323C58.9591 25.4164 60.0304 26.8302 62.2828 27.1181C61.3068 27.7689 60.5242 27.7689 59.6319 27.121C58.3902 26.2226 57.8877 24.0717 58.4942 22.2577C59.0284 20.6625 60.4347 19.5799 62.0085 19.5511C63.7729 19.5194 64.0357 19.8045 63.8653 22.0302Z" fill="white"/>
<path d="M90.1958 19.6029C89.3352 20.772 89.6702 26.1046 90.7011 27.5328C90.011 27.5328 89.3728 27.5328 88.7404 27.5328C89.3786 25.6785 88.6306 23.8472 88.6913 21.9468C87.9578 22.0907 88.1224 22.8566 87.5737 22.9574C87.9636 20.1327 88.3996 19.5367 90.1958 19.6029Z" fill="white"/>
<path d="M85.9507 27.4406C84.8014 24.8204 84.0823 22.0619 82.5229 19.6605C83.7011 19.2746 84.2094 19.7469 84.5126 20.8151C84.9111 22.2289 85.1479 23.8874 86.0546 24.9096C87.0567 26.0355 86.2481 26.6085 85.9507 27.4406Z" fill="white"/>
<path d="M76.453 27.8524C75.2719 24.8607 74.5846 22.0907 73.0195 19.6893C74.1803 19.2372 74.6626 19.7239 74.9716 20.7748C75.399 22.2318 75.6444 23.9278 76.5742 25.0018C77.5821 26.1679 76.6291 26.6574 76.453 27.8524Z" fill="white"/>
<path d="M81.772 11.1778C83.802 9.71797 85.9823 9.66614 88.1336 10.743C90.1377 11.7451 90.0684 13.7232 87.842 15.0852C88.6938 13.5821 88.5061 12.367 87.2558 11.5349C85.5693 10.4148 83.7847 10.242 82.0001 11.388C81.9221 11.316 81.8471 11.2469 81.772 11.1778Z" fill="white"/>
<path d="M43.6313 5.64362C45.4679 6.02658 46.6173 7.04876 47.8994 7.80316C48.038 7.88378 48.217 8.1746 48.1766 8.23219C47.7492 8.86278 46.9753 8.93476 46.3747 9.29757C45.9155 9.57399 45.6961 9.33212 45.4882 8.94916C44.925 7.91546 44.3388 6.89903 43.6313 5.64362Z" fill="white"/>
<path d="M65.575 21.2874C65.575 25.7331 66.1612 26.7035 69.1384 27.1498C67.709 27.8754 66.4124 27.6451 65.4421 26.4991C64.2495 25.0824 64.3044 22.8653 65.575 21.2874Z" fill="white"/>
<path d="M81.9974 11.3851C81.1772 12.891 81.5498 14.0889 83.0658 14.9556C84.2122 15.6121 85.4684 15.517 86.713 15.6293C85.2518 16.2542 83.7675 16.2858 82.2861 15.7042C81.313 15.3212 80.4755 14.7454 80.3485 13.5994C80.2214 12.4649 80.799 11.6932 81.7721 11.1778C81.8472 11.2469 81.9223 11.316 81.9974 11.3851Z" fill="white"/>
<path d="M70.5418 26.142C70.8421 21.774 70.0278 20.4494 66.9755 20.0204C68.3818 19.2833 69.5484 19.4417 70.5707 20.5099C71.8875 21.8891 71.9366 23.9047 70.5418 26.142Z" fill="white"/>
<path d="M33.709 15.7906C36.1867 15.8079 38.6644 15.7676 41.1391 15.8626C42.5541 15.9173 43.7612 15.7388 44.512 14.3912C45.0289 16.2283 44.9942 16.283 43.1721 16.283C40.4403 16.2859 37.7085 16.2974 34.9768 16.2628C34.5407 16.2571 33.8765 16.6112 33.709 15.7906Z" fill="white"/>
<path d="M42.2567 8.3445C41.8495 8.261 41.6358 7.94426 41.3817 7.65632C40.0418 6.11585 38.4131 6.12737 36.9895 7.63905C36.6083 8.04504 36.4322 8.66411 35.7997 8.81384C36.3311 7.49796 37.2927 6.50457 38.2658 5.51693C38.8203 4.95257 39.3921 4.83452 40.0014 5.43919C40.8821 6.30877 41.8148 7.13803 42.2567 8.3445Z" fill="white"/>
<path d="M34.6534 5.10803C34.4917 6.54485 33.4262 7.55551 32.8948 8.81669C32.7273 8.24945 32.5425 7.69948 31.7773 7.76283C31.1333 7.81466 31.1564 8.22065 31.2893 8.68135C30.2439 8.47692 29.7905 8.08244 30.937 7.34244C32.1613 6.55348 33.429 5.82788 34.6765 5.07635C34.6737 5.07635 34.6534 5.10803 34.6534 5.10803Z" fill="white"/>
<path d="M73.5048 23.0553C73.7098 24.5324 73.1756 26.0988 74.2267 27.4752C73.5365 27.7055 72.8926 27.6134 72.1187 27.5414C73.0918 26.165 73.0572 24.567 73.5048 23.0553Z" fill="white"/>
<path d="M35.797 8.81958C35.7219 9.54807 35.8201 10.0174 36.7644 10.1441C38.9042 10.4292 41.0007 10.5328 43.051 9.71219C43.4495 10.1124 43.1867 10.2938 42.7997 10.3716C40.4376 10.8553 38.0466 10.8812 35.7277 10.2852C34.5351 9.97998 35.5545 9.31196 35.797 8.81958Z" fill="white"/>
<path d="M31.289 8.68133C31.1562 8.21775 31.1331 7.81463 31.777 7.7628C32.5423 7.69946 32.7271 8.24942 32.8946 8.81666C32.909 8.88289 32.883 8.92896 32.8195 8.95199C32.4932 8.94911 32.164 8.94623 31.8377 8.94048C31.6557 8.85409 31.4709 8.76771 31.289 8.68133Z" fill="white"/>
<path d="M37.0644 12.9918C36.6197 13.274 36.2183 13.2798 35.8833 12.8191C36.2991 12.7212 36.689 12.8133 37.0644 12.9918Z" fill="white"/>
<path d="M43.1636 12.7672C42.8489 13.2596 42.4475 13.2682 41.9912 12.9774C42.358 12.7816 42.7449 12.6808 43.1636 12.7672Z" fill="white"/>
<path d="M33.9922 13.824C34.2521 14.181 34.1482 14.4661 33.819 14.7079C33.7035 14.3797 33.7612 14.0831 33.9922 13.824Z" fill="white"/>
<path d="M42.9122 9.45883C42.4472 9.2947 42.3 8.94918 42.3606 8.4856C42.6638 8.74474 42.8919 9.04132 42.9122 9.45883Z" fill="white"/>
<path d="M35.0518 12.6664C34.763 12.7557 34.4714 12.8478 34.1826 12.9371C34.2895 12.2662 34.6649 12.4447 35.0518 12.6664Z" fill="white"/>
<path d="M31.8379 8.94055C32.1642 8.94343 32.4934 8.94631 32.8197 8.95207C32.4847 9.60857 32.1613 9.28896 31.8379 8.94055Z" fill="white"/>
<path d="M44.3705 13.5533C44.0586 13.3517 43.9748 13.0494 43.9835 12.7039C44.4513 12.8334 44.4311 13.1847 44.3705 13.5533Z" fill="white"/>
<path d="M34.6735 5.07635C34.6966 5.10803 34.711 5.14834 34.7399 5.16274C34.7572 5.17137 34.7948 5.13106 34.8237 5.11379C34.7659 5.11091 34.7081 5.10803 34.6504 5.10515C34.6533 5.10803 34.6735 5.07635 34.6735 5.07635Z" fill="white"/>
<path d="M45.0722 23.9623C44.3185 23.9364 43.8074 23.5995 43.1634 23.1964C41.5059 22.154 39.5047 21.8488 37.5959 21.4486C36.8451 21.2902 36.6949 22.1137 36.848 22.6867C37.209 24.0228 36.6256 24.0602 35.5168 23.9421C32.2594 23.5937 29.0541 23.0323 25.9007 22.1454C24.9795 21.8863 24.4164 21.4572 24.2547 20.435C24.067 19.2603 23.6742 18.1171 23.3855 16.9567C23.2526 16.4183 23.1978 15.8626 23.8879 15.6639C24.4568 15.4998 24.942 15.8539 24.991 16.329C25.2769 19.0932 27.281 18.7074 29.1465 18.7016C37.2696 18.6815 45.3927 18.6844 53.513 18.7103C54.206 18.7132 55.2687 18.3101 55.4478 19.3841C55.6355 20.5041 55.312 21.5954 54.0761 22.1051C52.69 22.6752 51.2259 22.9689 49.7619 23.2338C48.2083 23.5131 46.6373 23.7233 45.0722 23.9623Z" fill="white"/>
<path d="M42.7387 29.1826C42.1208 28.6183 41.8493 28.2641 41.4912 28.0626C40.6769 27.6076 40.4834 26.0412 39.0338 26.6948C38.8172 26.7927 38.7364 26.5134 38.6902 26.3407C38.3783 25.1918 38.0693 24.04 37.7719 22.8854C37.6073 22.2491 37.9567 22.275 38.4101 22.4017C39.4236 22.6867 40.4372 22.9603 41.4566 23.2309C41.8955 23.3461 42.1294 23.3691 41.9937 24.0544C41.7656 25.2148 43.1517 25.4913 43.6599 26.2946C43.8707 26.6286 44.4858 26.8244 44.1624 27.3341C43.7552 27.9762 43.2383 28.5434 42.7387 29.1826Z" fill="#FF5200"/>
</svg>
