<svg width="20" height="24" viewBox="0 0 20 24" fill="none" xmlns="http://www.w3.org/2000/svg">
<path d="M16.4198 23.776C12.4198 23.776 8.42984 23.776 4.42984 23.776C4.38984 23.756 4.34984 23.736 4.29984 23.736C2.33984 23.426 0.949842 21.786 0.999842 19.806C1.00984 19.236 1.07984 18.666 1.12984 18.096C1.26984 16.236 1.41984 14.376 1.56984 12.516C1.72984 10.466 1.90984 8.41603 2.05984 6.36603C2.13984 5.32603 2.80984 4.67603 3.85984 4.67603C4.51984 4.67603 5.17984 4.67603 5.82984 4.67603C5.82984 5.70603 5.81984 6.73603 5.82984 7.76603C5.82984 8.18603 6.13984 8.48603 6.52984 8.48603C6.91984 8.48603 7.21984 8.17603 7.21984 7.76603C7.21984 6.73603 7.21984 5.70603 7.21984 4.67603C9.35984 4.67603 11.4998 4.67603 13.6398 4.67603C13.6398 5.68603 13.6398 6.70603 13.6398 7.71603C13.6398 8.16603 13.9298 8.48603 14.3398 8.48603C14.7498 8.48603 15.0398 8.17603 15.0398 7.71603C15.0398 6.70603 15.0398 5.68603 15.0398 4.67603C15.7098 4.67603 16.3898 4.67603 17.0598 4.67603C18.0598 4.68603 18.7398 5.34603 18.8098 6.34603C18.8998 7.57603 18.9998 8.81603 19.0998 10.046C19.2298 11.716 19.3698 13.376 19.4998 15.046C19.6198 16.536 19.7198 18.026 19.8598 19.506C20.0198 21.226 19.0198 22.886 17.4098 23.496C17.0798 23.626 16.7498 23.686 16.4198 23.776ZM9.45984 14.926C9.06984 14.536 8.69984 14.146 8.30984 13.766C7.97984 13.446 7.56984 13.436 7.27984 13.736C6.99984 14.026 7.00984 14.436 7.31984 14.746C7.84984 15.286 8.38984 15.826 8.92984 16.356C9.26984 16.686 9.65984 16.686 9.99984 16.356C10.3098 16.056 10.5998 15.756 10.8998 15.456C11.7698 14.586 12.6398 13.716 13.5098 12.846C13.8398 12.516 13.8498 12.106 13.5598 11.816C13.2698 11.526 12.8498 11.546 12.5298 11.856C12.3598 12.016 12.1998 12.186 12.0398 12.346C11.1898 13.196 10.3398 14.046 9.45984 14.926Z" fill="#FF5200"/>
<path d="M15.0301 4.68605C14.5601 4.68605 14.1001 4.68605 13.6301 4.68605C13.6401 2.84605 12.2301 1.38605 10.4301 1.38605C8.63008 1.38605 7.21008 2.84605 7.23008 4.68605C6.76008 4.68605 6.30008 4.68605 5.83008 4.68605C5.84008 3.29605 6.34008 2.11605 7.38008 1.16605C9.18008 -0.48395 12.0801 -0.36395 13.7501 1.40605C14.6101 2.32605 15.0201 3.42605 15.0301 4.68605Z" fill="#FF5200"/>
</svg>
