<svg width="20" height="23" viewBox="0 0 20 23" fill="none" xmlns="http://www.w3.org/2000/svg">
<path d="M9.7287 0.542969C6.62394 0.542969 4.08594 3.08097 4.08594 6.18574C4.08594 9.2905 6.62394 11.8285 9.7287 11.8285C12.8335 11.8285 15.3715 9.2905 15.3715 6.18574C15.3715 3.08097 12.8335 0.542969 9.7287 0.542969Z" fill="#FF5200"/>
<path d="M19.4123 16.338C19.2644 15.9684 19.0673 15.6235 18.8456 15.3031C17.7121 13.6275 15.9626 12.5187 13.9914 12.2476C13.745 12.223 13.4739 12.2723 13.2768 12.4201C12.2418 13.184 11.0098 13.5782 9.72847 13.5782C8.44711 13.5782 7.21509 13.184 6.18017 12.4201C5.98302 12.2723 5.71197 12.1983 5.46558 12.2476C3.49431 12.5187 1.72018 13.6275 0.611355 15.3031C0.389589 15.6235 0.192443 15.9931 0.0446303 16.338C-0.029276 16.4859 -0.0046563 16.6584 0.0692499 16.8062C0.266396 17.1512 0.512782 17.4962 0.734547 17.7919C1.07951 18.2601 1.44913 18.6789 1.86804 19.0732C2.213 19.4181 2.60725 19.7385 3.00154 20.0588C4.94815 21.5127 7.28904 22.2765 9.70385 22.2765C12.1187 22.2765 14.4596 21.5126 16.4062 20.0588C16.8004 19.7631 17.1946 19.4181 17.5397 19.0732C17.9339 18.6789 18.3281 18.26 18.6732 17.7919C18.9195 17.4715 19.1413 17.1512 19.3384 16.8062C19.4616 16.6584 19.4862 16.4858 19.4123 16.338Z" fill="#FF5200"/>
</svg>
