<svg width="55" height="23" viewBox="0 0 55 23" fill="none" xmlns="http://www.w3.org/2000/svg">
<path d="M3.86525 9.01267C3.86525 8.41394 4.35413 8.18356 5.16398 8.18356C6.325 8.18356 7.79163 8.5368 8.95275 9.1663V5.55805C7.68475 5.05141 6.43199 4.8518 5.16398 4.8518C2.0625 4.8518 0 6.47936 0 9.19706C0 13.4346 5.80551 12.7591 5.80551 14.5863C5.80551 15.2924 5.19449 15.5228 4.33888 15.5228C3.07087 15.5228 1.45138 15.0007 0.168008 14.2945V17.9487C1.58888 18.5629 3.025 18.8238 4.33888 18.8238C7.51663 18.8238 9.70138 17.2424 9.70138 14.4941C9.68612 9.91865 3.86525 10.7323 3.86525 9.01267ZM14.193 1.78107L10.4653 2.57941L10.45 14.8779C10.45 17.1504 12.1459 18.8238 14.407 18.8238C15.6597 18.8238 16.5764 18.5935 17.0805 18.3172V15.2003C16.5917 15.3999 14.1778 16.1062 14.1778 13.8338V8.38318H17.0805V5.11284H14.1778L14.193 1.78107ZM21.832 6.24898L21.5875 5.11284H18.2875V18.5474H22.107V9.44267C23.0083 8.26043 24.5361 8.47537 25.0097 8.64422V5.11284C24.5209 4.92856 22.7334 4.59076 21.832 6.24898ZM25.9416 5.11284H29.7764V18.5474H25.9416V5.11284ZM25.9416 3.94593L29.7764 3.11682V0L25.9416 0.813779V3.94593ZM37.7514 4.8518C36.2541 4.8518 35.2916 5.55805 34.757 6.04947L34.5583 5.09751H31.1972V23L35.0166 22.1863L35.032 17.8412C35.582 18.2404 36.3916 18.8085 37.7361 18.8085C40.4709 18.8085 42.9611 16.5975 42.9611 11.7304C42.9459 7.2777 40.425 4.8518 37.7514 4.8518ZM36.8347 15.4306C35.9334 15.4306 35.3985 15.1082 35.032 14.709L35.0166 9.01267C35.4139 8.56746 35.9639 8.26043 36.8347 8.26043C38.225 8.26043 39.1875 9.82645 39.1875 11.8378C39.1875 13.8952 38.2403 15.4306 36.8347 15.4306ZM55 11.8839C55 7.95329 53.1055 4.8518 49.4847 4.8518C45.8485 4.8518 43.6485 7.9534 43.6485 11.8532C43.6485 16.4747 46.2459 18.8085 49.9735 18.8085C51.7916 18.8085 53.1666 18.3939 54.2055 17.8105V14.7397C53.1667 15.2618 51.975 15.5842 50.4625 15.5842C48.9805 15.5842 47.6666 15.0621 47.4986 13.2504H54.9695C54.9695 13.0507 55 12.2524 55 11.8839ZM47.4528 10.4253C47.4528 8.69031 48.507 7.96862 49.4695 7.96862C50.4014 7.96862 51.3945 8.69031 51.3945 10.4253H47.4528Z" fill="#6772E5"/>
</svg>
